<?xml version="1.0" encoding="utf-8" standalone="no"?>
<!DOCTYPE svg PUBLIC "-//W3C//DTD SVG 1.1//EN"
  "http://www.w3.org/Graphics/SVG/1.1/DTD/svg11.dtd">
<svg xmlns:xlink="http://www.w3.org/1999/xlink" width="864pt" height="360pt" viewBox="0 0 864 360" xmlns="http://www.w3.org/2000/svg" version="1.1">
 <metadata>
  <rdf:RDF xmlns:dc="http://purl.org/dc/elements/1.1/" xmlns:cc="http://creativecommons.org/ns#" xmlns:rdf="http://www.w3.org/1999/02/22-rdf-syntax-ns#">
   <cc:Work>
    <dc:type rdf:resource="http://purl.org/dc/dcmitype/StillImage"/>
    <dc:date>2022-12-06T20:23:52.867523</dc:date>
    <dc:format>image/svg+xml</dc:format>
    <dc:creator>
     <cc:Agent>
      <dc:title>Matplotlib v3.6.2, https://matplotlib.org/</dc:title>
     </cc:Agent>
    </dc:creator>
   </cc:Work>
  </rdf:RDF>
 </metadata>
 <defs>
  <style type="text/css">*{stroke-linejoin: round; stroke-linecap: butt}</style>
 </defs>
 <g id="figure_1">
  <g id="patch_1">
   <path d="M 0 360 
L 864 360 
L 864 0 
L 0 0 
L 0 360 
z
" style="fill: none; opacity: 0"/>
  </g>
  <g id="axes_1">
   <g id="patch_2">
    <path d="M 108 320.4 
L 777.6 320.4 
L 777.6 43.2 
L 108 43.2 
L 108 320.4 
z
" style="fill: none; opacity: 0"/>
   </g>
   <g id="matplotlib.axis_1">
    <g id="xtick_1">
     <g id="line2d_1">
      <path d="M 110.434909 320.4 
L 110.434909 43.2 
" clip-path="url(#pc56a354212)" style="fill: none; stroke-dasharray: 5.12,1.28,0.8,1.28; stroke-dashoffset: 0; stroke: #b0b0b0; stroke-width: 0.8"/>
     </g>
     <g id="line2d_2">
      <defs>
       <path id="me26a0e725d" d="M 0 0 
L 0 3.5 
" style="stroke: #a9a9a9; stroke-width: 0.8"/>
      </defs>
      <g>
       <use xlink:href="#me26a0e725d" x="110.434909" y="320.4" style="fill: #a9a9a9; stroke: #a9a9a9; stroke-width: 0.8"/>
      </g>
     </g>
     <g id="text_1">
      <!-- 2021-07 -->
      <g style="fill: #a9a9a9" transform="translate(89.543503 334.998438) scale(0.1 -0.1)">
       <defs>
        <path id="DejaVuSans-32" d="M 1228 531 
L 3431 531 
L 3431 0 
L 469 0 
L 469 531 
Q 828 903 1448 1529 
Q 2069 2156 2228 2338 
Q 2531 2678 2651 2914 
Q 2772 3150 2772 3378 
Q 2772 3750 2511 3984 
Q 2250 4219 1831 4219 
Q 1534 4219 1204 4116 
Q 875 4013 500 3803 
L 500 4441 
Q 881 4594 1212 4672 
Q 1544 4750 1819 4750 
Q 2544 4750 2975 4387 
Q 3406 4025 3406 3419 
Q 3406 3131 3298 2873 
Q 3191 2616 2906 2266 
Q 2828 2175 2409 1742 
Q 1991 1309 1228 531 
z
" transform="scale(0.015625)"/>
        <path id="DejaVuSans-30" d="M 2034 4250 
Q 1547 4250 1301 3770 
Q 1056 3291 1056 2328 
Q 1056 1369 1301 889 
Q 1547 409 2034 409 
Q 2525 409 2770 889 
Q 3016 1369 3016 2328 
Q 3016 3291 2770 3770 
Q 2525 4250 2034 4250 
z
M 2034 4750 
Q 2819 4750 3233 4129 
Q 3647 3509 3647 2328 
Q 3647 1150 3233 529 
Q 2819 -91 2034 -91 
Q 1250 -91 836 529 
Q 422 1150 422 2328 
Q 422 3509 836 4129 
Q 1250 4750 2034 4750 
z
" transform="scale(0.015625)"/>
        <path id="DejaVuSans-31" d="M 794 531 
L 1825 531 
L 1825 4091 
L 703 3866 
L 703 4441 
L 1819 4666 
L 2450 4666 
L 2450 531 
L 3481 531 
L 3481 0 
L 794 0 
L 794 531 
z
" transform="scale(0.015625)"/>
        <path id="DejaVuSans-2d" d="M 313 2009 
L 1997 2009 
L 1997 1497 
L 313 1497 
L 313 2009 
z
" transform="scale(0.015625)"/>
        <path id="DejaVuSans-37" d="M 525 4666 
L 3525 4666 
L 3525 4397 
L 1831 0 
L 1172 0 
L 2766 4134 
L 525 4134 
L 525 4666 
z
" transform="scale(0.015625)"/>
       </defs>
       <use xlink:href="#DejaVuSans-32"/>
       <use xlink:href="#DejaVuSans-30" x="63.623047"/>
       <use xlink:href="#DejaVuSans-32" x="127.246094"/>
       <use xlink:href="#DejaVuSans-31" x="190.869141"/>
       <use xlink:href="#DejaVuSans-2d" x="254.492188"/>
       <use xlink:href="#DejaVuSans-30" x="290.576172"/>
       <use xlink:href="#DejaVuSans-37" x="354.199219"/>
      </g>
     </g>
    </g>
    <g id="xtick_2">
     <g id="line2d_3">
      <path d="M 185.917091 320.4 
L 185.917091 43.2 
" clip-path="url(#pc56a354212)" style="fill: none; stroke-dasharray: 5.12,1.28,0.8,1.28; stroke-dashoffset: 0; stroke: #b0b0b0; stroke-width: 0.8"/>
     </g>
     <g id="line2d_4">
      <g>
       <use xlink:href="#me26a0e725d" x="185.917091" y="320.4" style="fill: #a9a9a9; stroke: #a9a9a9; stroke-width: 0.8"/>
      </g>
     </g>
     <g id="text_2">
      <!-- 2021-09 -->
      <g style="fill: #a9a9a9" transform="translate(165.025685 334.998438) scale(0.1 -0.1)">
       <defs>
        <path id="DejaVuSans-39" d="M 703 97 
L 703 672 
Q 941 559 1184 500 
Q 1428 441 1663 441 
Q 2288 441 2617 861 
Q 2947 1281 2994 2138 
Q 2813 1869 2534 1725 
Q 2256 1581 1919 1581 
Q 1219 1581 811 2004 
Q 403 2428 403 3163 
Q 403 3881 828 4315 
Q 1253 4750 1959 4750 
Q 2769 4750 3195 4129 
Q 3622 3509 3622 2328 
Q 3622 1225 3098 567 
Q 2575 -91 1691 -91 
Q 1453 -91 1209 -44 
Q 966 3 703 97 
z
M 1959 2075 
Q 2384 2075 2632 2365 
Q 2881 2656 2881 3163 
Q 2881 3666 2632 3958 
Q 2384 4250 1959 4250 
Q 1534 4250 1286 3958 
Q 1038 3666 1038 3163 
Q 1038 2656 1286 2365 
Q 1534 2075 1959 2075 
z
" transform="scale(0.015625)"/>
       </defs>
       <use xlink:href="#DejaVuSans-32"/>
       <use xlink:href="#DejaVuSans-30" x="63.623047"/>
       <use xlink:href="#DejaVuSans-32" x="127.246094"/>
       <use xlink:href="#DejaVuSans-31" x="190.869141"/>
       <use xlink:href="#DejaVuSans-2d" x="254.492188"/>
       <use xlink:href="#DejaVuSans-30" x="290.576172"/>
       <use xlink:href="#DejaVuSans-39" x="354.199219"/>
      </g>
     </g>
    </g>
    <g id="xtick_3">
     <g id="line2d_5">
      <path d="M 260.181818 320.4 
L 260.181818 43.2 
" clip-path="url(#pc56a354212)" style="fill: none; stroke-dasharray: 5.12,1.28,0.8,1.28; stroke-dashoffset: 0; stroke: #b0b0b0; stroke-width: 0.8"/>
     </g>
     <g id="line2d_6">
      <g>
       <use xlink:href="#me26a0e725d" x="260.181818" y="320.4" style="fill: #a9a9a9; stroke: #a9a9a9; stroke-width: 0.8"/>
      </g>
     </g>
     <g id="text_3">
      <!-- 2021-11 -->
      <g style="fill: #a9a9a9" transform="translate(239.290412 334.998438) scale(0.1 -0.1)">
       <use xlink:href="#DejaVuSans-32"/>
       <use xlink:href="#DejaVuSans-30" x="63.623047"/>
       <use xlink:href="#DejaVuSans-32" x="127.246094"/>
       <use xlink:href="#DejaVuSans-31" x="190.869141"/>
       <use xlink:href="#DejaVuSans-2d" x="254.492188"/>
       <use xlink:href="#DejaVuSans-31" x="290.576172"/>
       <use xlink:href="#DejaVuSans-31" x="354.199219"/>
      </g>
     </g>
    </g>
    <g id="xtick_4">
     <g id="line2d_7">
      <path d="M 334.446545 320.4 
L 334.446545 43.2 
" clip-path="url(#pc56a354212)" style="fill: none; stroke-dasharray: 5.12,1.28,0.8,1.28; stroke-dashoffset: 0; stroke: #b0b0b0; stroke-width: 0.8"/>
     </g>
     <g id="line2d_8">
      <g>
       <use xlink:href="#me26a0e725d" x="334.446545" y="320.4" style="fill: #a9a9a9; stroke: #a9a9a9; stroke-width: 0.8"/>
      </g>
     </g>
     <g id="text_4">
      <!-- 2022-01 -->
      <g style="fill: #a9a9a9" transform="translate(313.555139 334.998438) scale(0.1 -0.1)">
       <use xlink:href="#DejaVuSans-32"/>
       <use xlink:href="#DejaVuSans-30" x="63.623047"/>
       <use xlink:href="#DejaVuSans-32" x="127.246094"/>
       <use xlink:href="#DejaVuSans-32" x="190.869141"/>
       <use xlink:href="#DejaVuSans-2d" x="254.492188"/>
       <use xlink:href="#DejaVuSans-30" x="290.576172"/>
       <use xlink:href="#DejaVuSans-31" x="354.199219"/>
      </g>
     </g>
    </g>
    <g id="xtick_5">
     <g id="line2d_9">
      <path d="M 406.276364 320.4 
L 406.276364 43.2 
" clip-path="url(#pc56a354212)" style="fill: none; stroke-dasharray: 5.12,1.28,0.8,1.28; stroke-dashoffset: 0; stroke: #b0b0b0; stroke-width: 0.8"/>
     </g>
     <g id="line2d_10">
      <g>
       <use xlink:href="#me26a0e725d" x="406.276364" y="320.4" style="fill: #a9a9a9; stroke: #a9a9a9; stroke-width: 0.8"/>
      </g>
     </g>
     <g id="text_5">
      <!-- 2022-03 -->
      <g style="fill: #a9a9a9" transform="translate(385.384957 334.998438) scale(0.1 -0.1)">
       <defs>
        <path id="DejaVuSans-33" d="M 2597 2516 
Q 3050 2419 3304 2112 
Q 3559 1806 3559 1356 
Q 3559 666 3084 287 
Q 2609 -91 1734 -91 
Q 1441 -91 1130 -33 
Q 819 25 488 141 
L 488 750 
Q 750 597 1062 519 
Q 1375 441 1716 441 
Q 2309 441 2620 675 
Q 2931 909 2931 1356 
Q 2931 1769 2642 2001 
Q 2353 2234 1838 2234 
L 1294 2234 
L 1294 2753 
L 1863 2753 
Q 2328 2753 2575 2939 
Q 2822 3125 2822 3475 
Q 2822 3834 2567 4026 
Q 2313 4219 1838 4219 
Q 1578 4219 1281 4162 
Q 984 4106 628 3988 
L 628 4550 
Q 988 4650 1302 4700 
Q 1616 4750 1894 4750 
Q 2613 4750 3031 4423 
Q 3450 4097 3450 3541 
Q 3450 3153 3228 2886 
Q 3006 2619 2597 2516 
z
" transform="scale(0.015625)"/>
       </defs>
       <use xlink:href="#DejaVuSans-32"/>
       <use xlink:href="#DejaVuSans-30" x="63.623047"/>
       <use xlink:href="#DejaVuSans-32" x="127.246094"/>
       <use xlink:href="#DejaVuSans-32" x="190.869141"/>
       <use xlink:href="#DejaVuSans-2d" x="254.492188"/>
       <use xlink:href="#DejaVuSans-30" x="290.576172"/>
       <use xlink:href="#DejaVuSans-33" x="354.199219"/>
      </g>
     </g>
    </g>
    <g id="xtick_6">
     <g id="line2d_11">
      <path d="M 480.541091 320.4 
L 480.541091 43.2 
" clip-path="url(#pc56a354212)" style="fill: none; stroke-dasharray: 5.12,1.28,0.8,1.28; stroke-dashoffset: 0; stroke: #b0b0b0; stroke-width: 0.8"/>
     </g>
     <g id="line2d_12">
      <g>
       <use xlink:href="#me26a0e725d" x="480.541091" y="320.4" style="fill: #a9a9a9; stroke: #a9a9a9; stroke-width: 0.8"/>
      </g>
     </g>
     <g id="text_6">
      <!-- 2022-05 -->
      <g style="fill: #a9a9a9" transform="translate(459.649685 334.998438) scale(0.1 -0.1)">
       <defs>
        <path id="DejaVuSans-35" d="M 691 4666 
L 3169 4666 
L 3169 4134 
L 1269 4134 
L 1269 2991 
Q 1406 3038 1543 3061 
Q 1681 3084 1819 3084 
Q 2600 3084 3056 2656 
Q 3513 2228 3513 1497 
Q 3513 744 3044 326 
Q 2575 -91 1722 -91 
Q 1428 -91 1123 -41 
Q 819 9 494 109 
L 494 744 
Q 775 591 1075 516 
Q 1375 441 1709 441 
Q 2250 441 2565 725 
Q 2881 1009 2881 1497 
Q 2881 1984 2565 2268 
Q 2250 2553 1709 2553 
Q 1456 2553 1204 2497 
Q 953 2441 691 2322 
L 691 4666 
z
" transform="scale(0.015625)"/>
       </defs>
       <use xlink:href="#DejaVuSans-32"/>
       <use xlink:href="#DejaVuSans-30" x="63.623047"/>
       <use xlink:href="#DejaVuSans-32" x="127.246094"/>
       <use xlink:href="#DejaVuSans-32" x="190.869141"/>
       <use xlink:href="#DejaVuSans-2d" x="254.492188"/>
       <use xlink:href="#DejaVuSans-30" x="290.576172"/>
       <use xlink:href="#DejaVuSans-35" x="354.199219"/>
      </g>
     </g>
    </g>
    <g id="xtick_7">
     <g id="line2d_13">
      <path d="M 554.805818 320.4 
L 554.805818 43.2 
" clip-path="url(#pc56a354212)" style="fill: none; stroke-dasharray: 5.12,1.28,0.8,1.28; stroke-dashoffset: 0; stroke: #b0b0b0; stroke-width: 0.8"/>
     </g>
     <g id="line2d_14">
      <g>
       <use xlink:href="#me26a0e725d" x="554.805818" y="320.4" style="fill: #a9a9a9; stroke: #a9a9a9; stroke-width: 0.8"/>
      </g>
     </g>
     <g id="text_7">
      <!-- 2022-07 -->
      <g style="fill: #a9a9a9" transform="translate(533.914412 334.998438) scale(0.1 -0.1)">
       <use xlink:href="#DejaVuSans-32"/>
       <use xlink:href="#DejaVuSans-30" x="63.623047"/>
       <use xlink:href="#DejaVuSans-32" x="127.246094"/>
       <use xlink:href="#DejaVuSans-32" x="190.869141"/>
       <use xlink:href="#DejaVuSans-2d" x="254.492188"/>
       <use xlink:href="#DejaVuSans-30" x="290.576172"/>
       <use xlink:href="#DejaVuSans-37" x="354.199219"/>
      </g>
     </g>
    </g>
    <g id="xtick_8">
     <g id="line2d_15">
      <path d="M 630.288 320.4 
L 630.288 43.2 
" clip-path="url(#pc56a354212)" style="fill: none; stroke-dasharray: 5.12,1.28,0.8,1.28; stroke-dashoffset: 0; stroke: #b0b0b0; stroke-width: 0.8"/>
     </g>
     <g id="line2d_16">
      <g>
       <use xlink:href="#me26a0e725d" x="630.288" y="320.4" style="fill: #a9a9a9; stroke: #a9a9a9; stroke-width: 0.8"/>
      </g>
     </g>
     <g id="text_8">
      <!-- 2022-09 -->
      <g style="fill: #a9a9a9" transform="translate(609.396594 334.998438) scale(0.1 -0.1)">
       <use xlink:href="#DejaVuSans-32"/>
       <use xlink:href="#DejaVuSans-30" x="63.623047"/>
       <use xlink:href="#DejaVuSans-32" x="127.246094"/>
       <use xlink:href="#DejaVuSans-32" x="190.869141"/>
       <use xlink:href="#DejaVuSans-2d" x="254.492188"/>
       <use xlink:href="#DejaVuSans-30" x="290.576172"/>
       <use xlink:href="#DejaVuSans-39" x="354.199219"/>
      </g>
     </g>
    </g>
    <g id="xtick_9">
     <g id="line2d_17">
      <path d="M 704.552727 320.4 
L 704.552727 43.2 
" clip-path="url(#pc56a354212)" style="fill: none; stroke-dasharray: 5.12,1.28,0.8,1.28; stroke-dashoffset: 0; stroke: #b0b0b0; stroke-width: 0.8"/>
     </g>
     <g id="line2d_18">
      <g>
       <use xlink:href="#me26a0e725d" x="704.552727" y="320.4" style="fill: #a9a9a9; stroke: #a9a9a9; stroke-width: 0.8"/>
      </g>
     </g>
     <g id="text_9">
      <!-- 2022-11 -->
      <g style="fill: #a9a9a9" transform="translate(683.661321 334.998438) scale(0.1 -0.1)">
       <use xlink:href="#DejaVuSans-32"/>
       <use xlink:href="#DejaVuSans-30" x="63.623047"/>
       <use xlink:href="#DejaVuSans-32" x="127.246094"/>
       <use xlink:href="#DejaVuSans-32" x="190.869141"/>
       <use xlink:href="#DejaVuSans-2d" x="254.492188"/>
       <use xlink:href="#DejaVuSans-31" x="290.576172"/>
       <use xlink:href="#DejaVuSans-31" x="354.199219"/>
      </g>
     </g>
    </g>
   </g>
   <g id="matplotlib.axis_2">
    <g id="ytick_1">
     <g id="line2d_19">
      <path d="M 108 307.876526 
L 777.6 307.876526 
" clip-path="url(#pc56a354212)" style="fill: none; stroke-dasharray: 5.12,1.28,0.8,1.28; stroke-dashoffset: 0; stroke: #b0b0b0; stroke-width: 0.8"/>
     </g>
     <g id="line2d_20">
      <defs>
       <path id="ma622d015e3" d="M 0 0 
L -3.5 0 
" style="stroke: #a9a9a9; stroke-width: 0.8"/>
      </defs>
      <g>
       <use xlink:href="#ma622d015e3" x="108" y="307.876526" style="fill: #a9a9a9; stroke: #a9a9a9; stroke-width: 0.8"/>
      </g>
     </g>
     <g id="text_10">
      <!-- 0 -->
      <g style="fill: #a9a9a9" transform="translate(94.6375 311.675745) scale(0.1 -0.1)">
       <use xlink:href="#DejaVuSans-30"/>
      </g>
     </g>
    </g>
    <g id="ytick_2">
     <g id="line2d_21">
      <path d="M 108 277.26614 
L 777.6 277.26614 
" clip-path="url(#pc56a354212)" style="fill: none; stroke-dasharray: 5.12,1.28,0.8,1.28; stroke-dashoffset: 0; stroke: #b0b0b0; stroke-width: 0.8"/>
     </g>
     <g id="line2d_22">
      <g>
       <use xlink:href="#ma622d015e3" x="108" y="277.26614" style="fill: #a9a9a9; stroke: #a9a9a9; stroke-width: 0.8"/>
      </g>
     </g>
     <g id="text_11">
      <!-- 400 -->
      <g style="fill: #a9a9a9" transform="translate(81.9125 281.065359) scale(0.1 -0.1)">
       <defs>
        <path id="DejaVuSans-34" d="M 2419 4116 
L 825 1625 
L 2419 1625 
L 2419 4116 
z
M 2253 4666 
L 3047 4666 
L 3047 1625 
L 3713 1625 
L 3713 1100 
L 3047 1100 
L 3047 0 
L 2419 0 
L 2419 1100 
L 313 1100 
L 313 1709 
L 2253 4666 
z
" transform="scale(0.015625)"/>
       </defs>
       <use xlink:href="#DejaVuSans-34"/>
       <use xlink:href="#DejaVuSans-30" x="63.623047"/>
       <use xlink:href="#DejaVuSans-30" x="127.246094"/>
      </g>
     </g>
    </g>
    <g id="ytick_3">
     <g id="line2d_23">
      <path d="M 108 246.655755 
L 777.6 246.655755 
" clip-path="url(#pc56a354212)" style="fill: none; stroke-dasharray: 5.12,1.28,0.8,1.28; stroke-dashoffset: 0; stroke: #b0b0b0; stroke-width: 0.8"/>
     </g>
     <g id="line2d_24">
      <g>
       <use xlink:href="#ma622d015e3" x="108" y="246.655755" style="fill: #a9a9a9; stroke: #a9a9a9; stroke-width: 0.8"/>
      </g>
     </g>
     <g id="text_12">
      <!-- 800 -->
      <g style="fill: #a9a9a9" transform="translate(81.9125 250.454973) scale(0.1 -0.1)">
       <defs>
        <path id="DejaVuSans-38" d="M 2034 2216 
Q 1584 2216 1326 1975 
Q 1069 1734 1069 1313 
Q 1069 891 1326 650 
Q 1584 409 2034 409 
Q 2484 409 2743 651 
Q 3003 894 3003 1313 
Q 3003 1734 2745 1975 
Q 2488 2216 2034 2216 
z
M 1403 2484 
Q 997 2584 770 2862 
Q 544 3141 544 3541 
Q 544 4100 942 4425 
Q 1341 4750 2034 4750 
Q 2731 4750 3128 4425 
Q 3525 4100 3525 3541 
Q 3525 3141 3298 2862 
Q 3072 2584 2669 2484 
Q 3125 2378 3379 2068 
Q 3634 1759 3634 1313 
Q 3634 634 3220 271 
Q 2806 -91 2034 -91 
Q 1263 -91 848 271 
Q 434 634 434 1313 
Q 434 1759 690 2068 
Q 947 2378 1403 2484 
z
M 1172 3481 
Q 1172 3119 1398 2916 
Q 1625 2713 2034 2713 
Q 2441 2713 2670 2916 
Q 2900 3119 2900 3481 
Q 2900 3844 2670 4047 
Q 2441 4250 2034 4250 
Q 1625 4250 1398 4047 
Q 1172 3844 1172 3481 
z
" transform="scale(0.015625)"/>
       </defs>
       <use xlink:href="#DejaVuSans-38"/>
       <use xlink:href="#DejaVuSans-30" x="63.623047"/>
       <use xlink:href="#DejaVuSans-30" x="127.246094"/>
      </g>
     </g>
    </g>
    <g id="ytick_4">
     <g id="line2d_25">
      <path d="M 108 216.045369 
L 777.6 216.045369 
" clip-path="url(#pc56a354212)" style="fill: none; stroke-dasharray: 5.12,1.28,0.8,1.28; stroke-dashoffset: 0; stroke: #b0b0b0; stroke-width: 0.8"/>
     </g>
     <g id="line2d_26">
      <g>
       <use xlink:href="#ma622d015e3" x="108" y="216.045369" style="fill: #a9a9a9; stroke: #a9a9a9; stroke-width: 0.8"/>
      </g>
     </g>
     <g id="text_13">
      <!-- 1200 -->
      <g style="fill: #a9a9a9" transform="translate(75.55 219.844588) scale(0.1 -0.1)">
       <use xlink:href="#DejaVuSans-31"/>
       <use xlink:href="#DejaVuSans-32" x="63.623047"/>
       <use xlink:href="#DejaVuSans-30" x="127.246094"/>
       <use xlink:href="#DejaVuSans-30" x="190.869141"/>
      </g>
     </g>
    </g>
    <g id="ytick_5">
     <g id="line2d_27">
      <path d="M 108 185.434983 
L 777.6 185.434983 
" clip-path="url(#pc56a354212)" style="fill: none; stroke-dasharray: 5.12,1.28,0.8,1.28; stroke-dashoffset: 0; stroke: #b0b0b0; stroke-width: 0.8"/>
     </g>
     <g id="line2d_28">
      <g>
       <use xlink:href="#ma622d015e3" x="108" y="185.434983" style="fill: #a9a9a9; stroke: #a9a9a9; stroke-width: 0.8"/>
      </g>
     </g>
     <g id="text_14">
      <!-- 1600 -->
      <g style="fill: #a9a9a9" transform="translate(75.55 189.234202) scale(0.1 -0.1)">
       <defs>
        <path id="DejaVuSans-36" d="M 2113 2584 
Q 1688 2584 1439 2293 
Q 1191 2003 1191 1497 
Q 1191 994 1439 701 
Q 1688 409 2113 409 
Q 2538 409 2786 701 
Q 3034 994 3034 1497 
Q 3034 2003 2786 2293 
Q 2538 2584 2113 2584 
z
M 3366 4563 
L 3366 3988 
Q 3128 4100 2886 4159 
Q 2644 4219 2406 4219 
Q 1781 4219 1451 3797 
Q 1122 3375 1075 2522 
Q 1259 2794 1537 2939 
Q 1816 3084 2150 3084 
Q 2853 3084 3261 2657 
Q 3669 2231 3669 1497 
Q 3669 778 3244 343 
Q 2819 -91 2113 -91 
Q 1303 -91 875 529 
Q 447 1150 447 2328 
Q 447 3434 972 4092 
Q 1497 4750 2381 4750 
Q 2619 4750 2861 4703 
Q 3103 4656 3366 4563 
z
" transform="scale(0.015625)"/>
       </defs>
       <use xlink:href="#DejaVuSans-31"/>
       <use xlink:href="#DejaVuSans-36" x="63.623047"/>
       <use xlink:href="#DejaVuSans-30" x="127.246094"/>
       <use xlink:href="#DejaVuSans-30" x="190.869141"/>
      </g>
     </g>
    </g>
    <g id="ytick_6">
     <g id="line2d_29">
      <path d="M 108 154.824598 
L 777.6 154.824598 
" clip-path="url(#pc56a354212)" style="fill: none; stroke-dasharray: 5.12,1.28,0.8,1.28; stroke-dashoffset: 0; stroke: #b0b0b0; stroke-width: 0.8"/>
     </g>
     <g id="line2d_30">
      <g>
       <use xlink:href="#ma622d015e3" x="108" y="154.824598" style="fill: #a9a9a9; stroke: #a9a9a9; stroke-width: 0.8"/>
      </g>
     </g>
     <g id="text_15">
      <!-- 2000 -->
      <g style="fill: #a9a9a9" transform="translate(75.55 158.623816) scale(0.1 -0.1)">
       <use xlink:href="#DejaVuSans-32"/>
       <use xlink:href="#DejaVuSans-30" x="63.623047"/>
       <use xlink:href="#DejaVuSans-30" x="127.246094"/>
       <use xlink:href="#DejaVuSans-30" x="190.869141"/>
      </g>
     </g>
    </g>
    <g id="ytick_7">
     <g id="line2d_31">
      <path d="M 108 124.214212 
L 777.6 124.214212 
" clip-path="url(#pc56a354212)" style="fill: none; stroke-dasharray: 5.12,1.28,0.8,1.28; stroke-dashoffset: 0; stroke: #b0b0b0; stroke-width: 0.8"/>
     </g>
     <g id="line2d_32">
      <g>
       <use xlink:href="#ma622d015e3" x="108" y="124.214212" style="fill: #a9a9a9; stroke: #a9a9a9; stroke-width: 0.8"/>
      </g>
     </g>
     <g id="text_16">
      <!-- 2400 -->
      <g style="fill: #a9a9a9" transform="translate(75.55 128.013431) scale(0.1 -0.1)">
       <use xlink:href="#DejaVuSans-32"/>
       <use xlink:href="#DejaVuSans-34" x="63.623047"/>
       <use xlink:href="#DejaVuSans-30" x="127.246094"/>
       <use xlink:href="#DejaVuSans-30" x="190.869141"/>
      </g>
     </g>
    </g>
    <g id="ytick_8">
     <g id="line2d_33">
      <path d="M 108 93.603826 
L 777.6 93.603826 
" clip-path="url(#pc56a354212)" style="fill: none; stroke-dasharray: 5.12,1.28,0.8,1.28; stroke-dashoffset: 0; stroke: #b0b0b0; stroke-width: 0.8"/>
     </g>
     <g id="line2d_34">
      <g>
       <use xlink:href="#ma622d015e3" x="108" y="93.603826" style="fill: #a9a9a9; stroke: #a9a9a9; stroke-width: 0.8"/>
      </g>
     </g>
     <g id="text_17">
      <!-- 2800 -->
      <g style="fill: #a9a9a9" transform="translate(75.55 97.403045) scale(0.1 -0.1)">
       <use xlink:href="#DejaVuSans-32"/>
       <use xlink:href="#DejaVuSans-38" x="63.623047"/>
       <use xlink:href="#DejaVuSans-30" x="127.246094"/>
       <use xlink:href="#DejaVuSans-30" x="190.869141"/>
      </g>
     </g>
    </g>
    <g id="ytick_9">
     <g id="line2d_35">
      <path d="M 108 62.993441 
L 777.6 62.993441 
" clip-path="url(#pc56a354212)" style="fill: none; stroke-dasharray: 5.12,1.28,0.8,1.28; stroke-dashoffset: 0; stroke: #b0b0b0; stroke-width: 0.8"/>
     </g>
     <g id="line2d_36">
      <g>
       <use xlink:href="#ma622d015e3" x="108" y="62.993441" style="fill: #a9a9a9; stroke: #a9a9a9; stroke-width: 0.8"/>
      </g>
     </g>
     <g id="text_18">
      <!-- 3200 -->
      <g style="fill: #a9a9a9" transform="translate(75.55 66.792659) scale(0.1 -0.1)">
       <use xlink:href="#DejaVuSans-33"/>
       <use xlink:href="#DejaVuSans-32" x="63.623047"/>
       <use xlink:href="#DejaVuSans-30" x="127.246094"/>
       <use xlink:href="#DejaVuSans-30" x="190.869141"/>
      </g>
     </g>
    </g>
   </g>
   <g id="line2d_37">
    <path d="M 138.436364 307.570422 
L 143.306182 307.187792 
L 144.523636 307.03474 
L 145.741091 307.03474 
L 146.958545 306.575585 
L 149.393455 306.422533 
L 157.915636 304.815487 
L 160.350545 304.662435 
L 161.568 304.432858 
L 165.220364 304.20328 
L 166.437818 303.591072 
L 167.655273 303.284968 
L 168.872727 301.907501 
L 170.090182 301.142241 
L 171.307636 298.463832 
L 172.525091 298.31078 
L 173.742545 297.468995 
L 174.96 297.009839 
L 176.177455 296.397631 
L 179.829818 293.566171 
L 181.047273 292.953963 
L 183.482182 292.035651 
L 184.699636 291.193866 
L 185.917091 290.73471 
L 188.352 289.280717 
L 189.569455 288.898087 
L 190.786909 287.061464 
L 192.004364 286.143152 
L 193.221818 285.454418 
L 194.439273 284.918737 
L 199.309091 284.230003 
L 202.961455 283.617795 
L 205.396364 283.464743 
L 206.613818 283.235166 
L 207.831273 282.622958 
L 212.701091 282.240328 
L 216.353455 281.857698 
L 217.570909 281.475068 
L 223.658182 280.327179 
L 226.093091 280.097601 
L 227.310545 279.791497 
L 230.962909 279.332341 
L 232.180364 278.720134 
L 233.397818 278.567082 
L 235.832727 277.725296 
L 238.267636 277.495718 
L 239.485091 277.113088 
L 244.354909 276.424355 
L 245.572364 276.041725 
L 248.007273 275.659095 
L 249.224727 275.659095 
L 255.312 274.893835 
L 257.746909 274.205102 
L 258.964364 273.898998 
L 261.399273 273.66942 
L 262.616727 273.592894 
L 266.269091 272.90416 
L 267.486545 272.445005 
L 268.704 270.914485 
L 269.921455 270.455329 
L 271.138909 269.843122 
L 272.356364 269.69007 
L 273.573818 269.383966 
L 274.791273 269.230914 
L 277.226182 268.236077 
L 278.443636 268.159551 
L 284.530909 266.552505 
L 285.748364 266.552505 
L 288.183273 266.246401 
L 290.618182 265.557668 
L 294.270545 264.639356 
L 295.488 264.56283 
L 297.922909 263.567993 
L 299.140364 263.414941 
L 300.357818 262.879259 
L 302.792727 262.649681 
L 304.010182 262.573155 
L 307.662545 261.960947 
L 310.097455 261.578318 
L 313.749818 260.889584 
L 314.967273 260.506954 
L 316.184727 260.353902 
L 318.619636 259.512117 
L 319.837091 258.823383 
L 321.054545 258.517279 
L 322.272 258.364227 
L 324.706909 257.598968 
L 327.141818 256.298026 
L 328.359273 255.532766 
L 329.576727 255.379715 
L 330.794182 254.997085 
L 332.011636 254.844033 
L 333.229091 254.537929 
L 334.446545 254.384877 
L 335.664 253.849195 
L 338.098909 253.466565 
L 339.316364 252.854358 
L 340.533818 252.395202 
L 341.751273 252.089098 
L 342.968727 251.936046 
L 344.186182 251.47689 
L 349.056 250.558579 
L 351.490909 249.563741 
L 352.708364 249.334163 
L 353.925818 248.875008 
L 355.143273 248.721956 
L 356.360727 248.186274 
L 357.578182 247.88017 
L 360.013091 247.727118 
L 362.448 246.961858 
L 363.665455 246.808807 
L 364.882909 246.808807 
L 366.100364 246.273125 
L 368.535273 245.890495 
L 369.752727 245.431339 
L 372.187636 245.354813 
L 373.405091 245.201761 
L 374.622545 245.201761 
L 377.057455 244.819131 
L 379.492364 243.671242 
L 381.927273 242.599879 
L 383.144727 242.293775 
L 384.362182 241.528515 
L 385.579636 241.145885 
L 388.014545 240.074522 
L 389.232 239.844944 
L 390.449455 239.309262 
L 391.666909 238.926632 
L 392.884364 238.161373 
L 394.101818 237.549165 
L 395.319273 236.324749 
L 396.536727 234.4116 
L 397.754182 232.881081 
L 398.971636 232.498451 
L 400.189091 232.498451 
L 401.406545 231.733192 
L 402.624 230.81488 
L 403.841455 230.508776 
L 405.058909 229.896568 
L 406.276364 229.666991 
L 407.493818 228.595627 
L 408.711273 228.289523 
L 412.363636 226.682478 
L 413.581091 225.305011 
L 414.798545 223.544913 
L 416.016 222.85618 
L 417.233455 220.943031 
L 418.450909 219.795141 
L 419.668364 219.259459 
L 420.885818 218.953356 
L 422.103273 218.188096 
L 424.538182 217.040206 
L 425.755636 216.198421 
L 426.973091 215.203583 
L 428.190545 214.361798 
L 429.408 213.673064 
L 430.625455 212.066019 
L 431.842909 209.38761 
L 433.060364 207.704039 
L 434.277818 206.785727 
L 435.495273 206.250046 
L 440.365091 202.347221 
L 442.8 200.434072 
L 444.017455 199.439235 
L 445.234909 197.755664 
L 446.452364 196.607774 
L 447.669818 195.689462 
L 451.322182 193.317158 
L 452.539636 192.475372 
L 453.757091 191.480534 
L 454.974545 191.174431 
L 456.192 190.638749 
L 459.844364 188.649074 
L 462.279273 187.501184 
L 464.714182 185.434983 
L 465.931636 183.98099 
L 467.149091 183.139204 
L 468.366545 182.450471 
L 469.584 182.144367 
L 470.801455 181.532159 
L 472.018909 180.690374 
L 474.453818 179.465958 
L 475.671273 179.23638 
L 476.888727 178.471121 
L 479.323636 177.170179 
L 480.541091 176.02229 
L 481.758545 175.180504 
L 482.976 174.797874 
L 484.193455 174.032615 
L 485.410909 173.496933 
L 486.628364 172.731673 
L 487.845818 172.272517 
L 489.063273 171.507258 
L 490.280727 170.51242 
L 492.715636 169.670635 
L 493.933091 169.134953 
L 495.150545 168.905375 
L 496.368 168.140115 
L 497.585455 167.910538 
L 500.020364 167.068752 
L 501.237818 166.686122 
L 503.672727 165.691285 
L 504.890182 165.232129 
L 506.107636 164.926025 
L 507.325091 164.466869 
L 509.76 164.007713 
L 510.977455 162.93635 
L 512.194909 162.018038 
L 513.412364 161.558882 
L 515.847273 160.257941 
L 518.282182 158.957 
L 520.717091 158.268266 
L 521.934545 157.349954 
L 523.152 157.043851 
L 525.586909 155.513331 
L 526.804364 154.901124 
L 530.456727 154.135864 
L 532.891636 153.44713 
L 536.544 151.457455 
L 537.761455 151.304403 
L 538.978909 150.845247 
L 540.196364 150.692196 
L 541.413818 150.23304 
L 542.631273 149.46778 
L 543.848727 148.549469 
L 545.066182 147.784209 
L 546.283636 147.554631 
L 547.501091 146.942423 
L 548.718545 146.789371 
L 549.936 146.330216 
L 551.153455 145.48843 
L 552.370909 145.1058 
L 553.588364 144.570118 
L 558.458182 143.269177 
L 559.675636 143.192651 
L 560.893091 142.810021 
L 563.328 141.738658 
L 564.545455 141.356028 
L 565.762909 141.12645 
L 566.980364 140.590768 
L 568.197818 140.208138 
L 569.415273 139.595931 
L 571.850182 138.907197 
L 573.067636 138.830671 
L 575.502545 138.294989 
L 576.72 137.759308 
L 577.937455 137.52973 
L 580.372364 136.534892 
L 584.024727 134.851321 
L 586.459636 133.320802 
L 587.677091 133.014698 
L 588.894545 132.325964 
L 590.112 131.866808 
L 591.329455 131.178075 
L 593.764364 130.565867 
L 594.981818 129.877133 
L 597.416727 128.882296 
L 599.851636 128.499666 
L 601.069091 127.65788 
L 602.286545 127.045673 
L 603.504 126.816095 
L 604.721455 126.356939 
L 605.938909 125.744731 
L 607.156364 125.515153 
L 608.373818 124.902946 
L 613.243636 124.214212 
L 615.678545 123.142848 
L 616.896 122.224537 
L 618.113455 120.158336 
L 619.330909 119.852232 
L 620.548364 119.69918 
L 621.765818 119.393076 
L 624.200727 118.092135 
L 625.418182 117.632979 
L 626.635636 117.020771 
L 627.853091 116.714667 
L 630.288 115.566778 
L 632.722909 114.418889 
L 635.157818 113.424051 
L 636.375273 112.658791 
L 637.592727 112.199636 
L 641.245091 111.35785 
L 643.68 110.209961 
L 644.897455 109.674279 
L 646.114909 109.444701 
L 649.767273 107.990708 
L 652.202182 106.536714 
L 653.419636 105.694929 
L 654.637091 105.082721 
L 655.854545 104.853143 
L 657.072 104.393987 
L 658.289455 104.317461 
L 663.159273 102.710416 
L 664.376727 102.63389 
L 665.594182 101.792104 
L 666.811636 101.409475 
L 668.029091 100.873793 
L 671.681455 99.802429 
L 672.898909 99.113696 
L 674.116364 98.731066 
L 675.333818 97.965806 
L 676.551273 97.430125 
L 677.768727 96.664865 
L 683.856 94.29256 
L 685.073455 93.603826 
L 686.290909 92.762041 
L 687.508364 91.461099 
L 688.725818 90.69584 
L 689.943273 90.466262 
L 692.378182 88.629639 
L 693.595636 88.170483 
L 694.813091 86.410386 
L 696.030545 85.95123 
L 697.248 85.109444 
L 698.465455 84.879866 
L 699.682909 84.114607 
L 700.900364 83.578925 
L 702.117818 83.349347 
L 703.335273 82.813665 
L 704.552727 81.818828 
L 705.770182 81.436198 
L 708.205091 79.829153 
L 709.422545 79.063893 
L 710.64 78.528211 
L 713.074909 77.22727 
L 714.292364 76.691588 
L 715.509818 76.538536 
L 716.727273 76.079381 
L 719.162182 74.625387 
L 720.379636 72.788764 
L 721.597091 71.640875 
L 722.814545 70.875615 
L 724.032 70.569511 
L 726.466909 69.192044 
L 727.684364 68.962466 
L 728.901818 68.273732 
L 732.554182 66.819739 
L 733.771636 66.207531 
L 736.206545 64.52396 
L 738.641455 61.998603 
L 739.858909 61.080292 
L 742.293818 59.626298 
L 743.511273 58.478409 
L 747.163636 55.8 
L 747.163636 55.8 
" clip-path="url(#pc56a354212)" style="fill: none; stroke: #1f77b4; stroke-width: 1.5; stroke-linecap: square"/>
   </g>
   <g id="line2d_38">
    <path d="M 139.653818 307.8 
L 142.088727 307.8 
L 144.523636 307.493896 
L 151.828364 307.41737 
L 155.480727 307.264318 
L 159.133091 307.187792 
L 161.568 307.111266 
L 165.220364 307.111266 
L 166.437818 306.805162 
L 170.090182 306.728637 
L 176.177455 306.039903 
L 185.917091 305.504221 
L 187.134545 305.504221 
L 188.352 305.274643 
L 192.004364 305.198117 
L 194.439273 304.892013 
L 199.309091 304.892013 
L 200.526545 304.738961 
L 206.613818 304.662435 
L 210.266182 304.509384 
L 221.223273 304.432858 
L 223.658182 304.356332 
L 228.528 304.279806 
L 232.180364 304.126754 
L 237.050182 304.126754 
L 238.267636 303.973702 
L 241.92 303.897176 
L 246.789818 303.667598 
L 255.312 303.591072 
L 257.746909 303.514546 
L 262.616727 303.43802 
L 266.269091 302.978864 
L 272.356364 302.902338 
L 278.443636 302.596234 
L 284.530909 302.519708 
L 288.183273 302.366657 
L 290.618182 302.290131 
L 293.053091 302.060553 
L 297.922909 301.830975 
L 301.575273 301.754449 
L 304.010182 301.677923 
L 306.445091 301.677923 
L 307.662545 301.524871 
L 311.314909 301.524871 
L 313.749818 301.295293 
L 317.402182 301.142241 
L 323.489455 301.065715 
L 328.359273 300.530033 
L 329.576727 300.453507 
L 330.794182 300.22393 
L 335.664 300.147404 
L 339.316364 299.8413 
L 341.751273 299.611722 
L 347.838545 299.305618 
L 351.490909 299.229092 
L 355.143273 299.07604 
L 356.360727 299.07604 
L 358.795636 298.846462 
L 361.230545 298.769936 
L 362.448 298.769936 
L 363.665455 298.616884 
L 366.100364 298.540358 
L 372.187636 298.234254 
L 374.622545 298.157729 
L 378.274909 298.004677 
L 381.927273 297.928151 
L 384.362182 297.851625 
L 390.449455 297.775099 
L 395.319273 297.239417 
L 396.536727 297.239417 
L 398.971636 297.009839 
L 401.406545 296.933313 
L 406.276364 296.550683 
L 407.493818 296.397631 
L 408.711273 296.091527 
L 411.146182 295.938476 
L 412.363636 295.632372 
L 416.016 295.326268 
L 418.450909 294.790586 
L 420.885818 294.71406 
L 423.320727 294.71406 
L 424.538182 294.561008 
L 425.755636 294.561008 
L 428.190545 294.178378 
L 433.060364 293.336593 
L 434.277818 293.336593 
L 435.495273 293.183541 
L 439.147636 293.107015 
L 454.974545 292.112177 
L 456.192 291.882599 
L 459.844364 291.653022 
L 462.279273 291.270392 
L 464.714182 291.040814 
L 467.149091 290.964288 
L 469.584 290.964288 
L 470.801455 290.658184 
L 472.018909 290.505132 
L 476.888727 290.428606 
L 479.323636 290.199028 
L 480.541091 290.199028 
L 484.193455 289.663346 
L 485.410909 289.357243 
L 486.628364 289.204191 
L 489.063273 289.127665 
L 495.150545 288.821561 
L 498.802909 288.745035 
L 514.629818 287.826723 
L 517.064727 287.826723 
L 519.499636 287.597145 
L 521.934545 287.597145 
L 525.586909 287.214516 
L 530.456727 286.984938 
L 532.891636 286.908412 
L 534.109091 286.75536 
L 538.978909 286.678834 
L 547.501091 286.219678 
L 553.588364 286.143152 
L 556.023273 286.066626 
L 557.240727 286.066626 
L 558.458182 285.837048 
L 560.893091 285.760522 
L 568.197818 285.683996 
L 571.850182 285.530944 
L 576.72 285.454418 
L 577.937455 285.224841 
L 585.242182 285.148315 
L 587.677091 285.071789 
L 590.112 284.995263 
L 592.546909 284.918737 
L 594.981818 284.842211 
L 604.721455 284.306529 
L 610.808727 284.230003 
L 614.461091 283.923899 
L 616.896 283.694321 
L 619.330909 283.617795 
L 621.765818 283.541269 
L 622.983273 283.388217 
L 626.635636 283.311691 
L 627.853091 283.005588 
L 632.722909 282.77601 
L 643.68 282.699484 
L 647.332364 282.39338 
L 652.202182 281.857698 
L 654.637091 281.781172 
L 659.506909 281.704646 
L 663.159273 281.322016 
L 670.464 280.939387 
L 672.898909 280.862861 
L 677.768727 280.633283 
L 682.638545 280.556757 
L 686.290909 280.403705 
L 691.160727 280.327179 
L 694.813091 279.944549 
L 697.248 279.868023 
L 702.117818 279.791497 
L 705.770182 279.485393 
L 706.987636 279.332341 
L 708.205091 279.332341 
L 709.422545 279.102763 
L 711.857455 279.026237 
L 716.727273 278.949712 
L 719.162182 278.567082 
L 721.597091 278.567082 
L 722.814545 278.337504 
L 725.249455 278.260978 
L 731.336727 278.184452 
L 733.771636 277.878348 
L 734.989091 277.878348 
L 737.424 277.64877 
L 738.641455 277.64877 
L 739.858909 277.342666 
L 742.293818 277.26614 
L 743.511273 277.113088 
L 745.946182 277.113088 
L 747.163636 276.960036 
L 747.163636 276.960036 
" clip-path="url(#pc56a354212)" style="fill: none; stroke: #ff7f0e; stroke-width: 1.5; stroke-linecap: square"/>
   </g>
   <g id="patch_3">
    <path d="M 108 320.4 
L 108 43.2 
" style="fill: none; stroke: #a9a9a9; stroke-width: 0.8; stroke-linejoin: miter; stroke-linecap: square"/>
   </g>
   <g id="patch_4">
    <path d="M 777.6 320.4 
L 777.6 43.2 
" style="fill: none"/>
   </g>
   <g id="patch_5">
    <path d="M 108 320.4 
L 777.6 320.4 
" style="fill: none; stroke: #a9a9a9; stroke-width: 0.8; stroke-linejoin: miter; stroke-linecap: square"/>
   </g>
   <g id="patch_6">
    <path d="M 108 43.2 
L 777.6 43.2 
" style="fill: none"/>
   </g>
   <g id="text_19">
    <!-- get_subscribe history -->
    <g style="fill: #a9a9a9" transform="translate(378.6075 37.2) scale(0.12 -0.12)">
     <defs>
      <path id="DejaVuSans-67" d="M 2906 1791 
Q 2906 2416 2648 2759 
Q 2391 3103 1925 3103 
Q 1463 3103 1205 2759 
Q 947 2416 947 1791 
Q 947 1169 1205 825 
Q 1463 481 1925 481 
Q 2391 481 2648 825 
Q 2906 1169 2906 1791 
z
M 3481 434 
Q 3481 -459 3084 -895 
Q 2688 -1331 1869 -1331 
Q 1566 -1331 1297 -1286 
Q 1028 -1241 775 -1147 
L 775 -588 
Q 1028 -725 1275 -790 
Q 1522 -856 1778 -856 
Q 2344 -856 2625 -561 
Q 2906 -266 2906 331 
L 2906 616 
Q 2728 306 2450 153 
Q 2172 0 1784 0 
Q 1141 0 747 490 
Q 353 981 353 1791 
Q 353 2603 747 3093 
Q 1141 3584 1784 3584 
Q 2172 3584 2450 3431 
Q 2728 3278 2906 2969 
L 2906 3500 
L 3481 3500 
L 3481 434 
z
" transform="scale(0.015625)"/>
      <path id="DejaVuSans-65" d="M 3597 1894 
L 3597 1613 
L 953 1613 
Q 991 1019 1311 708 
Q 1631 397 2203 397 
Q 2534 397 2845 478 
Q 3156 559 3463 722 
L 3463 178 
Q 3153 47 2828 -22 
Q 2503 -91 2169 -91 
Q 1331 -91 842 396 
Q 353 884 353 1716 
Q 353 2575 817 3079 
Q 1281 3584 2069 3584 
Q 2775 3584 3186 3129 
Q 3597 2675 3597 1894 
z
M 3022 2063 
Q 3016 2534 2758 2815 
Q 2500 3097 2075 3097 
Q 1594 3097 1305 2825 
Q 1016 2553 972 2059 
L 3022 2063 
z
" transform="scale(0.015625)"/>
      <path id="DejaVuSans-74" d="M 1172 4494 
L 1172 3500 
L 2356 3500 
L 2356 3053 
L 1172 3053 
L 1172 1153 
Q 1172 725 1289 603 
Q 1406 481 1766 481 
L 2356 481 
L 2356 0 
L 1766 0 
Q 1100 0 847 248 
Q 594 497 594 1153 
L 594 3053 
L 172 3053 
L 172 3500 
L 594 3500 
L 594 4494 
L 1172 4494 
z
" transform="scale(0.015625)"/>
      <path id="DejaVuSans-5f" d="M 3263 -1063 
L 3263 -1509 
L -63 -1509 
L -63 -1063 
L 3263 -1063 
z
" transform="scale(0.015625)"/>
      <path id="DejaVuSans-73" d="M 2834 3397 
L 2834 2853 
Q 2591 2978 2328 3040 
Q 2066 3103 1784 3103 
Q 1356 3103 1142 2972 
Q 928 2841 928 2578 
Q 928 2378 1081 2264 
Q 1234 2150 1697 2047 
L 1894 2003 
Q 2506 1872 2764 1633 
Q 3022 1394 3022 966 
Q 3022 478 2636 193 
Q 2250 -91 1575 -91 
Q 1294 -91 989 -36 
Q 684 19 347 128 
L 347 722 
Q 666 556 975 473 
Q 1284 391 1588 391 
Q 1994 391 2212 530 
Q 2431 669 2431 922 
Q 2431 1156 2273 1281 
Q 2116 1406 1581 1522 
L 1381 1569 
Q 847 1681 609 1914 
Q 372 2147 372 2553 
Q 372 3047 722 3315 
Q 1072 3584 1716 3584 
Q 2034 3584 2315 3537 
Q 2597 3491 2834 3397 
z
" transform="scale(0.015625)"/>
      <path id="DejaVuSans-75" d="M 544 1381 
L 544 3500 
L 1119 3500 
L 1119 1403 
Q 1119 906 1312 657 
Q 1506 409 1894 409 
Q 2359 409 2629 706 
Q 2900 1003 2900 1516 
L 2900 3500 
L 3475 3500 
L 3475 0 
L 2900 0 
L 2900 538 
Q 2691 219 2414 64 
Q 2138 -91 1772 -91 
Q 1169 -91 856 284 
Q 544 659 544 1381 
z
M 1991 3584 
L 1991 3584 
z
" transform="scale(0.015625)"/>
      <path id="DejaVuSans-62" d="M 3116 1747 
Q 3116 2381 2855 2742 
Q 2594 3103 2138 3103 
Q 1681 3103 1420 2742 
Q 1159 2381 1159 1747 
Q 1159 1113 1420 752 
Q 1681 391 2138 391 
Q 2594 391 2855 752 
Q 3116 1113 3116 1747 
z
M 1159 2969 
Q 1341 3281 1617 3432 
Q 1894 3584 2278 3584 
Q 2916 3584 3314 3078 
Q 3713 2572 3713 1747 
Q 3713 922 3314 415 
Q 2916 -91 2278 -91 
Q 1894 -91 1617 61 
Q 1341 213 1159 525 
L 1159 0 
L 581 0 
L 581 4863 
L 1159 4863 
L 1159 2969 
z
" transform="scale(0.015625)"/>
      <path id="DejaVuSans-63" d="M 3122 3366 
L 3122 2828 
Q 2878 2963 2633 3030 
Q 2388 3097 2138 3097 
Q 1578 3097 1268 2742 
Q 959 2388 959 1747 
Q 959 1106 1268 751 
Q 1578 397 2138 397 
Q 2388 397 2633 464 
Q 2878 531 3122 666 
L 3122 134 
Q 2881 22 2623 -34 
Q 2366 -91 2075 -91 
Q 1284 -91 818 406 
Q 353 903 353 1747 
Q 353 2603 823 3093 
Q 1294 3584 2113 3584 
Q 2378 3584 2631 3529 
Q 2884 3475 3122 3366 
z
" transform="scale(0.015625)"/>
      <path id="DejaVuSans-72" d="M 2631 2963 
Q 2534 3019 2420 3045 
Q 2306 3072 2169 3072 
Q 1681 3072 1420 2755 
Q 1159 2438 1159 1844 
L 1159 0 
L 581 0 
L 581 3500 
L 1159 3500 
L 1159 2956 
Q 1341 3275 1631 3429 
Q 1922 3584 2338 3584 
Q 2397 3584 2469 3576 
Q 2541 3569 2628 3553 
L 2631 2963 
z
" transform="scale(0.015625)"/>
      <path id="DejaVuSans-69" d="M 603 3500 
L 1178 3500 
L 1178 0 
L 603 0 
L 603 3500 
z
M 603 4863 
L 1178 4863 
L 1178 4134 
L 603 4134 
L 603 4863 
z
" transform="scale(0.015625)"/>
      <path id="DejaVuSans-20" transform="scale(0.015625)"/>
      <path id="DejaVuSans-68" d="M 3513 2113 
L 3513 0 
L 2938 0 
L 2938 2094 
Q 2938 2591 2744 2837 
Q 2550 3084 2163 3084 
Q 1697 3084 1428 2787 
Q 1159 2491 1159 1978 
L 1159 0 
L 581 0 
L 581 4863 
L 1159 4863 
L 1159 2956 
Q 1366 3272 1645 3428 
Q 1925 3584 2291 3584 
Q 2894 3584 3203 3211 
Q 3513 2838 3513 2113 
z
" transform="scale(0.015625)"/>
      <path id="DejaVuSans-6f" d="M 1959 3097 
Q 1497 3097 1228 2736 
Q 959 2375 959 1747 
Q 959 1119 1226 758 
Q 1494 397 1959 397 
Q 2419 397 2687 759 
Q 2956 1122 2956 1747 
Q 2956 2369 2687 2733 
Q 2419 3097 1959 3097 
z
M 1959 3584 
Q 2709 3584 3137 3096 
Q 3566 2609 3566 1747 
Q 3566 888 3137 398 
Q 2709 -91 1959 -91 
Q 1206 -91 779 398 
Q 353 888 353 1747 
Q 353 2609 779 3096 
Q 1206 3584 1959 3584 
z
" transform="scale(0.015625)"/>
      <path id="DejaVuSans-79" d="M 2059 -325 
Q 1816 -950 1584 -1140 
Q 1353 -1331 966 -1331 
L 506 -1331 
L 506 -850 
L 844 -850 
Q 1081 -850 1212 -737 
Q 1344 -625 1503 -206 
L 1606 56 
L 191 3500 
L 800 3500 
L 1894 763 
L 2988 3500 
L 3597 3500 
L 2059 -325 
z
" transform="scale(0.015625)"/>
     </defs>
     <use xlink:href="#DejaVuSans-67"/>
     <use xlink:href="#DejaVuSans-65" x="63.476562"/>
     <use xlink:href="#DejaVuSans-74" x="125"/>
     <use xlink:href="#DejaVuSans-5f" x="164.208984"/>
     <use xlink:href="#DejaVuSans-73" x="214.208984"/>
     <use xlink:href="#DejaVuSans-75" x="266.308594"/>
     <use xlink:href="#DejaVuSans-62" x="329.6875"/>
     <use xlink:href="#DejaVuSans-73" x="393.164062"/>
     <use xlink:href="#DejaVuSans-63" x="445.263672"/>
     <use xlink:href="#DejaVuSans-72" x="500.244141"/>
     <use xlink:href="#DejaVuSans-69" x="541.357422"/>
     <use xlink:href="#DejaVuSans-62" x="569.140625"/>
     <use xlink:href="#DejaVuSans-65" x="632.617188"/>
     <use xlink:href="#DejaVuSans-20" x="694.140625"/>
     <use xlink:href="#DejaVuSans-68" x="725.927734"/>
     <use xlink:href="#DejaVuSans-69" x="789.306641"/>
     <use xlink:href="#DejaVuSans-73" x="817.089844"/>
     <use xlink:href="#DejaVuSans-74" x="869.189453"/>
     <use xlink:href="#DejaVuSans-6f" x="908.398438"/>
     <use xlink:href="#DejaVuSans-72" x="969.580078"/>
     <use xlink:href="#DejaVuSans-79" x="1010.693359"/>
    </g>
   </g>
   <g id="legend_1">
    <g id="line2d_39">
     <path d="M 815.08 328.498438 
L 825.08 328.498438 
L 835.08 328.498438 
" style="fill: none; stroke: #1f77b4; stroke-width: 1.5; stroke-linecap: square"/>
    </g>
    <g id="text_20">
     <!-- star -->
     <g style="fill: #a9a9a9" transform="translate(843.08 331.998438) scale(0.1 -0.1)">
      <defs>
       <path id="DejaVuSans-61" d="M 2194 1759 
Q 1497 1759 1228 1600 
Q 959 1441 959 1056 
Q 959 750 1161 570 
Q 1363 391 1709 391 
Q 2188 391 2477 730 
Q 2766 1069 2766 1631 
L 2766 1759 
L 2194 1759 
z
M 3341 1997 
L 3341 0 
L 2766 0 
L 2766 531 
Q 2569 213 2275 61 
Q 1981 -91 1556 -91 
Q 1019 -91 701 211 
Q 384 513 384 1019 
Q 384 1609 779 1909 
Q 1175 2209 1959 2209 
L 2766 2209 
L 2766 2266 
Q 2766 2663 2505 2880 
Q 2244 3097 1772 3097 
Q 1472 3097 1187 3025 
Q 903 2953 641 2809 
L 641 3341 
Q 956 3463 1253 3523 
Q 1550 3584 1831 3584 
Q 2591 3584 2966 3190 
Q 3341 2797 3341 1997 
z
" transform="scale(0.015625)"/>
      </defs>
      <use xlink:href="#DejaVuSans-73"/>
      <use xlink:href="#DejaVuSans-74" x="52.099609"/>
      <use xlink:href="#DejaVuSans-61" x="91.308594"/>
      <use xlink:href="#DejaVuSans-72" x="152.587891"/>
     </g>
    </g>
    <g id="line2d_40">
     <path d="M 815.08 343.176562 
L 825.08 343.176562 
L 835.08 343.176562 
" style="fill: none; stroke: #ff7f0e; stroke-width: 1.5; stroke-linecap: square"/>
    </g>
    <g id="text_21">
     <!-- fork -->
     <g style="fill: #a9a9a9" transform="translate(843.08 346.676562) scale(0.1 -0.1)">
      <defs>
       <path id="DejaVuSans-66" d="M 2375 4863 
L 2375 4384 
L 1825 4384 
Q 1516 4384 1395 4259 
Q 1275 4134 1275 3809 
L 1275 3500 
L 2222 3500 
L 2222 3053 
L 1275 3053 
L 1275 0 
L 697 0 
L 697 3053 
L 147 3053 
L 147 3500 
L 697 3500 
L 697 3744 
Q 697 4328 969 4595 
Q 1241 4863 1831 4863 
L 2375 4863 
z
" transform="scale(0.015625)"/>
       <path id="DejaVuSans-6b" d="M 581 4863 
L 1159 4863 
L 1159 1991 
L 2875 3500 
L 3609 3500 
L 1753 1863 
L 3688 0 
L 2938 0 
L 1159 1709 
L 1159 0 
L 581 0 
L 581 4863 
z
" transform="scale(0.015625)"/>
      </defs>
      <use xlink:href="#DejaVuSans-66"/>
      <use xlink:href="#DejaVuSans-6f" x="35.205078"/>
      <use xlink:href="#DejaVuSans-72" x="96.386719"/>
      <use xlink:href="#DejaVuSans-6b" x="137.5"/>
     </g>
    </g>
   </g>
  </g>
 </g>
 <defs>
  <clipPath id="pc56a354212">
   <rect x="108" y="43.2" width="669.6" height="277.2"/>
  </clipPath>
 </defs>
</svg>
