<?xml version="1.0" encoding="utf-8" standalone="no"?>
<!DOCTYPE svg PUBLIC "-//W3C//DTD SVG 1.1//EN"
  "http://www.w3.org/Graphics/SVG/1.1/DTD/svg11.dtd">
<svg xmlns:xlink="http://www.w3.org/1999/xlink" width="864pt" height="360pt" viewBox="0 0 864 360" xmlns="http://www.w3.org/2000/svg" version="1.1">
 <metadata>
  <rdf:RDF xmlns:dc="http://purl.org/dc/elements/1.1/" xmlns:cc="http://creativecommons.org/ns#" xmlns:rdf="http://www.w3.org/1999/02/22-rdf-syntax-ns#">
   <cc:Work>
    <dc:type rdf:resource="http://purl.org/dc/dcmitype/StillImage"/>
    <dc:date>2022-12-08T08:56:50.719619</dc:date>
    <dc:format>image/svg+xml</dc:format>
    <dc:creator>
     <cc:Agent>
      <dc:title>Matplotlib v3.6.2, https://matplotlib.org/</dc:title>
     </cc:Agent>
    </dc:creator>
   </cc:Work>
  </rdf:RDF>
 </metadata>
 <defs>
  <style type="text/css">*{stroke-linejoin: round; stroke-linecap: butt}</style>
 </defs>
 <g id="figure_1">
  <g id="patch_1">
   <path d="M 0 360 
L 864 360 
L 864 0 
L 0 0 
L 0 360 
z
" style="fill: none; opacity: 0"/>
  </g>
  <g id="axes_1">
   <g id="patch_2">
    <path d="M 108 320.4 
L 777.6 320.4 
L 777.6 43.2 
L 108 43.2 
L 108 320.4 
z
" style="fill: none; opacity: 0"/>
   </g>
   <g id="matplotlib.axis_1">
    <g id="xtick_1">
     <g id="line2d_1">
      <path d="M 110.546469 320.4 
L 110.546469 43.2 
" clip-path="url(#p1e11f9d364)" style="fill: none; stroke-dasharray: 5.12,1.28,0.8,1.28; stroke-dashoffset: 0; stroke: #b0b0b0; stroke-width: 0.8"/>
     </g>
     <g id="line2d_2">
      <defs>
       <path id="m8252856f31" d="M 0 0 
L 0 3.5 
" style="stroke: #a9a9a9; stroke-width: 0.8"/>
      </defs>
      <g>
       <use xlink:href="#m8252856f31" x="110.546469" y="320.4" style="fill: #a9a9a9; stroke: #a9a9a9; stroke-width: 0.8"/>
      </g>
     </g>
     <g id="text_1">
      <!-- 2021-07 -->
      <g style="fill: #a9a9a9" transform="translate(89.655062 334.998438) scale(0.1 -0.1)">
       <defs>
        <path id="DejaVuSans-32" d="M 1228 531 
L 3431 531 
L 3431 0 
L 469 0 
L 469 531 
Q 828 903 1448 1529 
Q 2069 2156 2228 2338 
Q 2531 2678 2651 2914 
Q 2772 3150 2772 3378 
Q 2772 3750 2511 3984 
Q 2250 4219 1831 4219 
Q 1534 4219 1204 4116 
Q 875 4013 500 3803 
L 500 4441 
Q 881 4594 1212 4672 
Q 1544 4750 1819 4750 
Q 2544 4750 2975 4387 
Q 3406 4025 3406 3419 
Q 3406 3131 3298 2873 
Q 3191 2616 2906 2266 
Q 2828 2175 2409 1742 
Q 1991 1309 1228 531 
z
" transform="scale(0.015625)"/>
        <path id="DejaVuSans-30" d="M 2034 4250 
Q 1547 4250 1301 3770 
Q 1056 3291 1056 2328 
Q 1056 1369 1301 889 
Q 1547 409 2034 409 
Q 2525 409 2770 889 
Q 3016 1369 3016 2328 
Q 3016 3291 2770 3770 
Q 2525 4250 2034 4250 
z
M 2034 4750 
Q 2819 4750 3233 4129 
Q 3647 3509 3647 2328 
Q 3647 1150 3233 529 
Q 2819 -91 2034 -91 
Q 1250 -91 836 529 
Q 422 1150 422 2328 
Q 422 3509 836 4129 
Q 1250 4750 2034 4750 
z
" transform="scale(0.015625)"/>
        <path id="DejaVuSans-31" d="M 794 531 
L 1825 531 
L 1825 4091 
L 703 3866 
L 703 4441 
L 1819 4666 
L 2450 4666 
L 2450 531 
L 3481 531 
L 3481 0 
L 794 0 
L 794 531 
z
" transform="scale(0.015625)"/>
        <path id="DejaVuSans-2d" d="M 313 2009 
L 1997 2009 
L 1997 1497 
L 313 1497 
L 313 2009 
z
" transform="scale(0.015625)"/>
        <path id="DejaVuSans-37" d="M 525 4666 
L 3525 4666 
L 3525 4397 
L 1831 0 
L 1172 0 
L 2766 4134 
L 525 4134 
L 525 4666 
z
" transform="scale(0.015625)"/>
       </defs>
       <use xlink:href="#DejaVuSans-32"/>
       <use xlink:href="#DejaVuSans-30" x="63.623047"/>
       <use xlink:href="#DejaVuSans-32" x="127.246094"/>
       <use xlink:href="#DejaVuSans-31" x="190.869141"/>
       <use xlink:href="#DejaVuSans-2d" x="254.492188"/>
       <use xlink:href="#DejaVuSans-30" x="290.576172"/>
       <use xlink:href="#DejaVuSans-37" x="354.199219"/>
      </g>
     </g>
    </g>
    <g id="xtick_2">
     <g id="line2d_3">
      <path d="M 185.727925 320.4 
L 185.727925 43.2 
" clip-path="url(#p1e11f9d364)" style="fill: none; stroke-dasharray: 5.12,1.28,0.8,1.28; stroke-dashoffset: 0; stroke: #b0b0b0; stroke-width: 0.8"/>
     </g>
     <g id="line2d_4">
      <g>
       <use xlink:href="#m8252856f31" x="185.727925" y="320.4" style="fill: #a9a9a9; stroke: #a9a9a9; stroke-width: 0.8"/>
      </g>
     </g>
     <g id="text_2">
      <!-- 2021-09 -->
      <g style="fill: #a9a9a9" transform="translate(164.836518 334.998438) scale(0.1 -0.1)">
       <defs>
        <path id="DejaVuSans-39" d="M 703 97 
L 703 672 
Q 941 559 1184 500 
Q 1428 441 1663 441 
Q 2288 441 2617 861 
Q 2947 1281 2994 2138 
Q 2813 1869 2534 1725 
Q 2256 1581 1919 1581 
Q 1219 1581 811 2004 
Q 403 2428 403 3163 
Q 403 3881 828 4315 
Q 1253 4750 1959 4750 
Q 2769 4750 3195 4129 
Q 3622 3509 3622 2328 
Q 3622 1225 3098 567 
Q 2575 -91 1691 -91 
Q 1453 -91 1209 -44 
Q 966 3 703 97 
z
M 1959 2075 
Q 2384 2075 2632 2365 
Q 2881 2656 2881 3163 
Q 2881 3666 2632 3958 
Q 2384 4250 1959 4250 
Q 1534 4250 1286 3958 
Q 1038 3666 1038 3163 
Q 1038 2656 1286 2365 
Q 1534 2075 1959 2075 
z
" transform="scale(0.015625)"/>
       </defs>
       <use xlink:href="#DejaVuSans-32"/>
       <use xlink:href="#DejaVuSans-30" x="63.623047"/>
       <use xlink:href="#DejaVuSans-32" x="127.246094"/>
       <use xlink:href="#DejaVuSans-31" x="190.869141"/>
       <use xlink:href="#DejaVuSans-2d" x="254.492188"/>
       <use xlink:href="#DejaVuSans-30" x="290.576172"/>
       <use xlink:href="#DejaVuSans-39" x="354.199219"/>
      </g>
     </g>
    </g>
    <g id="xtick_3">
     <g id="line2d_5">
      <path d="M 259.696777 320.4 
L 259.696777 43.2 
" clip-path="url(#p1e11f9d364)" style="fill: none; stroke-dasharray: 5.12,1.28,0.8,1.28; stroke-dashoffset: 0; stroke: #b0b0b0; stroke-width: 0.8"/>
     </g>
     <g id="line2d_6">
      <g>
       <use xlink:href="#m8252856f31" x="259.696777" y="320.4" style="fill: #a9a9a9; stroke: #a9a9a9; stroke-width: 0.8"/>
      </g>
     </g>
     <g id="text_3">
      <!-- 2021-11 -->
      <g style="fill: #a9a9a9" transform="translate(238.80537 334.998438) scale(0.1 -0.1)">
       <use xlink:href="#DejaVuSans-32"/>
       <use xlink:href="#DejaVuSans-30" x="63.623047"/>
       <use xlink:href="#DejaVuSans-32" x="127.246094"/>
       <use xlink:href="#DejaVuSans-31" x="190.869141"/>
       <use xlink:href="#DejaVuSans-2d" x="254.492188"/>
       <use xlink:href="#DejaVuSans-31" x="290.576172"/>
       <use xlink:href="#DejaVuSans-31" x="354.199219"/>
      </g>
     </g>
    </g>
    <g id="xtick_4">
     <g id="line2d_7">
      <path d="M 333.665628 320.4 
L 333.665628 43.2 
" clip-path="url(#p1e11f9d364)" style="fill: none; stroke-dasharray: 5.12,1.28,0.8,1.28; stroke-dashoffset: 0; stroke: #b0b0b0; stroke-width: 0.8"/>
     </g>
     <g id="line2d_8">
      <g>
       <use xlink:href="#m8252856f31" x="333.665628" y="320.4" style="fill: #a9a9a9; stroke: #a9a9a9; stroke-width: 0.8"/>
      </g>
     </g>
     <g id="text_4">
      <!-- 2022-01 -->
      <g style="fill: #a9a9a9" transform="translate(312.774222 334.998438) scale(0.1 -0.1)">
       <use xlink:href="#DejaVuSans-32"/>
       <use xlink:href="#DejaVuSans-30" x="63.623047"/>
       <use xlink:href="#DejaVuSans-32" x="127.246094"/>
       <use xlink:href="#DejaVuSans-32" x="190.869141"/>
       <use xlink:href="#DejaVuSans-2d" x="254.492188"/>
       <use xlink:href="#DejaVuSans-30" x="290.576172"/>
       <use xlink:href="#DejaVuSans-31" x="354.199219"/>
      </g>
     </g>
    </g>
    <g id="xtick_5">
     <g id="line2d_9">
      <path d="M 405.209272 320.4 
L 405.209272 43.2 
" clip-path="url(#p1e11f9d364)" style="fill: none; stroke-dasharray: 5.12,1.28,0.8,1.28; stroke-dashoffset: 0; stroke: #b0b0b0; stroke-width: 0.8"/>
     </g>
     <g id="line2d_10">
      <g>
       <use xlink:href="#m8252856f31" x="405.209272" y="320.4" style="fill: #a9a9a9; stroke: #a9a9a9; stroke-width: 0.8"/>
      </g>
     </g>
     <g id="text_5">
      <!-- 2022-03 -->
      <g style="fill: #a9a9a9" transform="translate(384.317866 334.998438) scale(0.1 -0.1)">
       <defs>
        <path id="DejaVuSans-33" d="M 2597 2516 
Q 3050 2419 3304 2112 
Q 3559 1806 3559 1356 
Q 3559 666 3084 287 
Q 2609 -91 1734 -91 
Q 1441 -91 1130 -33 
Q 819 25 488 141 
L 488 750 
Q 750 597 1062 519 
Q 1375 441 1716 441 
Q 2309 441 2620 675 
Q 2931 909 2931 1356 
Q 2931 1769 2642 2001 
Q 2353 2234 1838 2234 
L 1294 2234 
L 1294 2753 
L 1863 2753 
Q 2328 2753 2575 2939 
Q 2822 3125 2822 3475 
Q 2822 3834 2567 4026 
Q 2313 4219 1838 4219 
Q 1578 4219 1281 4162 
Q 984 4106 628 3988 
L 628 4550 
Q 988 4650 1302 4700 
Q 1616 4750 1894 4750 
Q 2613 4750 3031 4423 
Q 3450 4097 3450 3541 
Q 3450 3153 3228 2886 
Q 3006 2619 2597 2516 
z
" transform="scale(0.015625)"/>
       </defs>
       <use xlink:href="#DejaVuSans-32"/>
       <use xlink:href="#DejaVuSans-30" x="63.623047"/>
       <use xlink:href="#DejaVuSans-32" x="127.246094"/>
       <use xlink:href="#DejaVuSans-32" x="190.869141"/>
       <use xlink:href="#DejaVuSans-2d" x="254.492188"/>
       <use xlink:href="#DejaVuSans-30" x="290.576172"/>
       <use xlink:href="#DejaVuSans-33" x="354.199219"/>
      </g>
     </g>
    </g>
    <g id="xtick_6">
     <g id="line2d_11">
      <path d="M 479.178124 320.4 
L 479.178124 43.2 
" clip-path="url(#p1e11f9d364)" style="fill: none; stroke-dasharray: 5.12,1.28,0.8,1.28; stroke-dashoffset: 0; stroke: #b0b0b0; stroke-width: 0.8"/>
     </g>
     <g id="line2d_12">
      <g>
       <use xlink:href="#m8252856f31" x="479.178124" y="320.4" style="fill: #a9a9a9; stroke: #a9a9a9; stroke-width: 0.8"/>
      </g>
     </g>
     <g id="text_6">
      <!-- 2022-05 -->
      <g style="fill: #a9a9a9" transform="translate(458.286718 334.998438) scale(0.1 -0.1)">
       <defs>
        <path id="DejaVuSans-35" d="M 691 4666 
L 3169 4666 
L 3169 4134 
L 1269 4134 
L 1269 2991 
Q 1406 3038 1543 3061 
Q 1681 3084 1819 3084 
Q 2600 3084 3056 2656 
Q 3513 2228 3513 1497 
Q 3513 744 3044 326 
Q 2575 -91 1722 -91 
Q 1428 -91 1123 -41 
Q 819 9 494 109 
L 494 744 
Q 775 591 1075 516 
Q 1375 441 1709 441 
Q 2250 441 2565 725 
Q 2881 1009 2881 1497 
Q 2881 1984 2565 2268 
Q 2250 2553 1709 2553 
Q 1456 2553 1204 2497 
Q 953 2441 691 2322 
L 691 4666 
z
" transform="scale(0.015625)"/>
       </defs>
       <use xlink:href="#DejaVuSans-32"/>
       <use xlink:href="#DejaVuSans-30" x="63.623047"/>
       <use xlink:href="#DejaVuSans-32" x="127.246094"/>
       <use xlink:href="#DejaVuSans-32" x="190.869141"/>
       <use xlink:href="#DejaVuSans-2d" x="254.492188"/>
       <use xlink:href="#DejaVuSans-30" x="290.576172"/>
       <use xlink:href="#DejaVuSans-35" x="354.199219"/>
      </g>
     </g>
    </g>
    <g id="xtick_7">
     <g id="line2d_13">
      <path d="M 553.146976 320.4 
L 553.146976 43.2 
" clip-path="url(#p1e11f9d364)" style="fill: none; stroke-dasharray: 5.12,1.28,0.8,1.28; stroke-dashoffset: 0; stroke: #b0b0b0; stroke-width: 0.8"/>
     </g>
     <g id="line2d_14">
      <g>
       <use xlink:href="#m8252856f31" x="553.146976" y="320.4" style="fill: #a9a9a9; stroke: #a9a9a9; stroke-width: 0.8"/>
      </g>
     </g>
     <g id="text_7">
      <!-- 2022-07 -->
      <g style="fill: #a9a9a9" transform="translate(532.255569 334.998438) scale(0.1 -0.1)">
       <use xlink:href="#DejaVuSans-32"/>
       <use xlink:href="#DejaVuSans-30" x="63.623047"/>
       <use xlink:href="#DejaVuSans-32" x="127.246094"/>
       <use xlink:href="#DejaVuSans-32" x="190.869141"/>
       <use xlink:href="#DejaVuSans-2d" x="254.492188"/>
       <use xlink:href="#DejaVuSans-30" x="290.576172"/>
       <use xlink:href="#DejaVuSans-37" x="354.199219"/>
      </g>
     </g>
    </g>
    <g id="xtick_8">
     <g id="line2d_15">
      <path d="M 628.328432 320.4 
L 628.328432 43.2 
" clip-path="url(#p1e11f9d364)" style="fill: none; stroke-dasharray: 5.12,1.28,0.8,1.28; stroke-dashoffset: 0; stroke: #b0b0b0; stroke-width: 0.8"/>
     </g>
     <g id="line2d_16">
      <g>
       <use xlink:href="#m8252856f31" x="628.328432" y="320.4" style="fill: #a9a9a9; stroke: #a9a9a9; stroke-width: 0.8"/>
      </g>
     </g>
     <g id="text_8">
      <!-- 2022-09 -->
      <g style="fill: #a9a9a9" transform="translate(607.437025 334.998438) scale(0.1 -0.1)">
       <use xlink:href="#DejaVuSans-32"/>
       <use xlink:href="#DejaVuSans-30" x="63.623047"/>
       <use xlink:href="#DejaVuSans-32" x="127.246094"/>
       <use xlink:href="#DejaVuSans-32" x="190.869141"/>
       <use xlink:href="#DejaVuSans-2d" x="254.492188"/>
       <use xlink:href="#DejaVuSans-30" x="290.576172"/>
       <use xlink:href="#DejaVuSans-39" x="354.199219"/>
      </g>
     </g>
    </g>
    <g id="xtick_9">
     <g id="line2d_17">
      <path d="M 702.297284 320.4 
L 702.297284 43.2 
" clip-path="url(#p1e11f9d364)" style="fill: none; stroke-dasharray: 5.12,1.28,0.8,1.28; stroke-dashoffset: 0; stroke: #b0b0b0; stroke-width: 0.8"/>
     </g>
     <g id="line2d_18">
      <g>
       <use xlink:href="#m8252856f31" x="702.297284" y="320.4" style="fill: #a9a9a9; stroke: #a9a9a9; stroke-width: 0.8"/>
      </g>
     </g>
     <g id="text_9">
      <!-- 2022-11 -->
      <g style="fill: #a9a9a9" transform="translate(681.405877 334.998438) scale(0.1 -0.1)">
       <use xlink:href="#DejaVuSans-32"/>
       <use xlink:href="#DejaVuSans-30" x="63.623047"/>
       <use xlink:href="#DejaVuSans-32" x="127.246094"/>
       <use xlink:href="#DejaVuSans-32" x="190.869141"/>
       <use xlink:href="#DejaVuSans-2d" x="254.492188"/>
       <use xlink:href="#DejaVuSans-31" x="290.576172"/>
       <use xlink:href="#DejaVuSans-31" x="354.199219"/>
      </g>
     </g>
    </g>
    <g id="xtick_10">
     <g id="line2d_19">
      <path d="M 776.266135 320.4 
L 776.266135 43.2 
" clip-path="url(#p1e11f9d364)" style="fill: none; stroke-dasharray: 5.12,1.28,0.8,1.28; stroke-dashoffset: 0; stroke: #b0b0b0; stroke-width: 0.8"/>
     </g>
     <g id="line2d_20">
      <g>
       <use xlink:href="#m8252856f31" x="776.266135" y="320.4" style="fill: #a9a9a9; stroke: #a9a9a9; stroke-width: 0.8"/>
      </g>
     </g>
     <g id="text_10">
      <!-- 2023-01 -->
      <g style="fill: #a9a9a9" transform="translate(755.374729 334.998438) scale(0.1 -0.1)">
       <use xlink:href="#DejaVuSans-32"/>
       <use xlink:href="#DejaVuSans-30" x="63.623047"/>
       <use xlink:href="#DejaVuSans-32" x="127.246094"/>
       <use xlink:href="#DejaVuSans-33" x="190.869141"/>
       <use xlink:href="#DejaVuSans-2d" x="254.492188"/>
       <use xlink:href="#DejaVuSans-30" x="290.576172"/>
       <use xlink:href="#DejaVuSans-31" x="354.199219"/>
      </g>
     </g>
    </g>
   </g>
   <g id="matplotlib.axis_2">
    <g id="ytick_1">
     <g id="line2d_21">
      <path d="M 108 307.876294 
L 777.6 307.876294 
" clip-path="url(#p1e11f9d364)" style="fill: none; stroke-dasharray: 5.12,1.28,0.8,1.28; stroke-dashoffset: 0; stroke: #b0b0b0; stroke-width: 0.8"/>
     </g>
     <g id="line2d_22">
      <defs>
       <path id="meb65ac8894" d="M 0 0 
L -3.5 0 
" style="stroke: #a9a9a9; stroke-width: 0.8"/>
      </defs>
      <g>
       <use xlink:href="#meb65ac8894" x="108" y="307.876294" style="fill: #a9a9a9; stroke: #a9a9a9; stroke-width: 0.8"/>
      </g>
     </g>
     <g id="text_11">
      <!-- 0 -->
      <g style="fill: #a9a9a9" transform="translate(94.6375 311.675513) scale(0.1 -0.1)">
       <use xlink:href="#DejaVuSans-30"/>
      </g>
     </g>
    </g>
    <g id="ytick_2">
     <g id="line2d_23">
      <path d="M 108 277.358583 
L 777.6 277.358583 
" clip-path="url(#p1e11f9d364)" style="fill: none; stroke-dasharray: 5.12,1.28,0.8,1.28; stroke-dashoffset: 0; stroke: #b0b0b0; stroke-width: 0.8"/>
     </g>
     <g id="line2d_24">
      <g>
       <use xlink:href="#meb65ac8894" x="108" y="277.358583" style="fill: #a9a9a9; stroke: #a9a9a9; stroke-width: 0.8"/>
      </g>
     </g>
     <g id="text_12">
      <!-- 400 -->
      <g style="fill: #a9a9a9" transform="translate(81.9125 281.157802) scale(0.1 -0.1)">
       <defs>
        <path id="DejaVuSans-34" d="M 2419 4116 
L 825 1625 
L 2419 1625 
L 2419 4116 
z
M 2253 4666 
L 3047 4666 
L 3047 1625 
L 3713 1625 
L 3713 1100 
L 3047 1100 
L 3047 0 
L 2419 0 
L 2419 1100 
L 313 1100 
L 313 1709 
L 2253 4666 
z
" transform="scale(0.015625)"/>
       </defs>
       <use xlink:href="#DejaVuSans-34"/>
       <use xlink:href="#DejaVuSans-30" x="63.623047"/>
       <use xlink:href="#DejaVuSans-30" x="127.246094"/>
      </g>
     </g>
    </g>
    <g id="ytick_3">
     <g id="line2d_25">
      <path d="M 108 246.840872 
L 777.6 246.840872 
" clip-path="url(#p1e11f9d364)" style="fill: none; stroke-dasharray: 5.12,1.28,0.8,1.28; stroke-dashoffset: 0; stroke: #b0b0b0; stroke-width: 0.8"/>
     </g>
     <g id="line2d_26">
      <g>
       <use xlink:href="#meb65ac8894" x="108" y="246.840872" style="fill: #a9a9a9; stroke: #a9a9a9; stroke-width: 0.8"/>
      </g>
     </g>
     <g id="text_13">
      <!-- 800 -->
      <g style="fill: #a9a9a9" transform="translate(81.9125 250.640091) scale(0.1 -0.1)">
       <defs>
        <path id="DejaVuSans-38" d="M 2034 2216 
Q 1584 2216 1326 1975 
Q 1069 1734 1069 1313 
Q 1069 891 1326 650 
Q 1584 409 2034 409 
Q 2484 409 2743 651 
Q 3003 894 3003 1313 
Q 3003 1734 2745 1975 
Q 2488 2216 2034 2216 
z
M 1403 2484 
Q 997 2584 770 2862 
Q 544 3141 544 3541 
Q 544 4100 942 4425 
Q 1341 4750 2034 4750 
Q 2731 4750 3128 4425 
Q 3525 4100 3525 3541 
Q 3525 3141 3298 2862 
Q 3072 2584 2669 2484 
Q 3125 2378 3379 2068 
Q 3634 1759 3634 1313 
Q 3634 634 3220 271 
Q 2806 -91 2034 -91 
Q 1263 -91 848 271 
Q 434 634 434 1313 
Q 434 1759 690 2068 
Q 947 2378 1403 2484 
z
M 1172 3481 
Q 1172 3119 1398 2916 
Q 1625 2713 2034 2713 
Q 2441 2713 2670 2916 
Q 2900 3119 2900 3481 
Q 2900 3844 2670 4047 
Q 2441 4250 2034 4250 
Q 1625 4250 1398 4047 
Q 1172 3844 1172 3481 
z
" transform="scale(0.015625)"/>
       </defs>
       <use xlink:href="#DejaVuSans-38"/>
       <use xlink:href="#DejaVuSans-30" x="63.623047"/>
       <use xlink:href="#DejaVuSans-30" x="127.246094"/>
      </g>
     </g>
    </g>
    <g id="ytick_4">
     <g id="line2d_27">
      <path d="M 108 216.323161 
L 777.6 216.323161 
" clip-path="url(#p1e11f9d364)" style="fill: none; stroke-dasharray: 5.12,1.28,0.8,1.28; stroke-dashoffset: 0; stroke: #b0b0b0; stroke-width: 0.8"/>
     </g>
     <g id="line2d_28">
      <g>
       <use xlink:href="#meb65ac8894" x="108" y="216.323161" style="fill: #a9a9a9; stroke: #a9a9a9; stroke-width: 0.8"/>
      </g>
     </g>
     <g id="text_14">
      <!-- 1200 -->
      <g style="fill: #a9a9a9" transform="translate(75.55 220.12238) scale(0.1 -0.1)">
       <use xlink:href="#DejaVuSans-31"/>
       <use xlink:href="#DejaVuSans-32" x="63.623047"/>
       <use xlink:href="#DejaVuSans-30" x="127.246094"/>
       <use xlink:href="#DejaVuSans-30" x="190.869141"/>
      </g>
     </g>
    </g>
    <g id="ytick_5">
     <g id="line2d_29">
      <path d="M 108 185.80545 
L 777.6 185.80545 
" clip-path="url(#p1e11f9d364)" style="fill: none; stroke-dasharray: 5.12,1.28,0.8,1.28; stroke-dashoffset: 0; stroke: #b0b0b0; stroke-width: 0.8"/>
     </g>
     <g id="line2d_30">
      <g>
       <use xlink:href="#meb65ac8894" x="108" y="185.80545" style="fill: #a9a9a9; stroke: #a9a9a9; stroke-width: 0.8"/>
      </g>
     </g>
     <g id="text_15">
      <!-- 1600 -->
      <g style="fill: #a9a9a9" transform="translate(75.55 189.604668) scale(0.1 -0.1)">
       <defs>
        <path id="DejaVuSans-36" d="M 2113 2584 
Q 1688 2584 1439 2293 
Q 1191 2003 1191 1497 
Q 1191 994 1439 701 
Q 1688 409 2113 409 
Q 2538 409 2786 701 
Q 3034 994 3034 1497 
Q 3034 2003 2786 2293 
Q 2538 2584 2113 2584 
z
M 3366 4563 
L 3366 3988 
Q 3128 4100 2886 4159 
Q 2644 4219 2406 4219 
Q 1781 4219 1451 3797 
Q 1122 3375 1075 2522 
Q 1259 2794 1537 2939 
Q 1816 3084 2150 3084 
Q 2853 3084 3261 2657 
Q 3669 2231 3669 1497 
Q 3669 778 3244 343 
Q 2819 -91 2113 -91 
Q 1303 -91 875 529 
Q 447 1150 447 2328 
Q 447 3434 972 4092 
Q 1497 4750 2381 4750 
Q 2619 4750 2861 4703 
Q 3103 4656 3366 4563 
z
" transform="scale(0.015625)"/>
       </defs>
       <use xlink:href="#DejaVuSans-31"/>
       <use xlink:href="#DejaVuSans-36" x="63.623047"/>
       <use xlink:href="#DejaVuSans-30" x="127.246094"/>
       <use xlink:href="#DejaVuSans-30" x="190.869141"/>
      </g>
     </g>
    </g>
    <g id="ytick_6">
     <g id="line2d_31">
      <path d="M 108 155.287738 
L 777.6 155.287738 
" clip-path="url(#p1e11f9d364)" style="fill: none; stroke-dasharray: 5.12,1.28,0.8,1.28; stroke-dashoffset: 0; stroke: #b0b0b0; stroke-width: 0.8"/>
     </g>
     <g id="line2d_32">
      <g>
       <use xlink:href="#meb65ac8894" x="108" y="155.287738" style="fill: #a9a9a9; stroke: #a9a9a9; stroke-width: 0.8"/>
      </g>
     </g>
     <g id="text_16">
      <!-- 2000 -->
      <g style="fill: #a9a9a9" transform="translate(75.55 159.086957) scale(0.1 -0.1)">
       <use xlink:href="#DejaVuSans-32"/>
       <use xlink:href="#DejaVuSans-30" x="63.623047"/>
       <use xlink:href="#DejaVuSans-30" x="127.246094"/>
       <use xlink:href="#DejaVuSans-30" x="190.869141"/>
      </g>
     </g>
    </g>
    <g id="ytick_7">
     <g id="line2d_33">
      <path d="M 108 124.770027 
L 777.6 124.770027 
" clip-path="url(#p1e11f9d364)" style="fill: none; stroke-dasharray: 5.12,1.28,0.8,1.28; stroke-dashoffset: 0; stroke: #b0b0b0; stroke-width: 0.8"/>
     </g>
     <g id="line2d_34">
      <g>
       <use xlink:href="#meb65ac8894" x="108" y="124.770027" style="fill: #a9a9a9; stroke: #a9a9a9; stroke-width: 0.8"/>
      </g>
     </g>
     <g id="text_17">
      <!-- 2400 -->
      <g style="fill: #a9a9a9" transform="translate(75.55 128.569246) scale(0.1 -0.1)">
       <use xlink:href="#DejaVuSans-32"/>
       <use xlink:href="#DejaVuSans-34" x="63.623047"/>
       <use xlink:href="#DejaVuSans-30" x="127.246094"/>
       <use xlink:href="#DejaVuSans-30" x="190.869141"/>
      </g>
     </g>
    </g>
    <g id="ytick_8">
     <g id="line2d_35">
      <path d="M 108 94.252316 
L 777.6 94.252316 
" clip-path="url(#p1e11f9d364)" style="fill: none; stroke-dasharray: 5.12,1.28,0.8,1.28; stroke-dashoffset: 0; stroke: #b0b0b0; stroke-width: 0.8"/>
     </g>
     <g id="line2d_36">
      <g>
       <use xlink:href="#meb65ac8894" x="108" y="94.252316" style="fill: #a9a9a9; stroke: #a9a9a9; stroke-width: 0.8"/>
      </g>
     </g>
     <g id="text_18">
      <!-- 2800 -->
      <g style="fill: #a9a9a9" transform="translate(75.55 98.051535) scale(0.1 -0.1)">
       <use xlink:href="#DejaVuSans-32"/>
       <use xlink:href="#DejaVuSans-38" x="63.623047"/>
       <use xlink:href="#DejaVuSans-30" x="127.246094"/>
       <use xlink:href="#DejaVuSans-30" x="190.869141"/>
      </g>
     </g>
    </g>
    <g id="ytick_9">
     <g id="line2d_37">
      <path d="M 108 63.734605 
L 777.6 63.734605 
" clip-path="url(#p1e11f9d364)" style="fill: none; stroke-dasharray: 5.12,1.28,0.8,1.28; stroke-dashoffset: 0; stroke: #b0b0b0; stroke-width: 0.8"/>
     </g>
     <g id="line2d_38">
      <g>
       <use xlink:href="#meb65ac8894" x="108" y="63.734605" style="fill: #a9a9a9; stroke: #a9a9a9; stroke-width: 0.8"/>
      </g>
     </g>
     <g id="text_19">
      <!-- 3200 -->
      <g style="fill: #a9a9a9" transform="translate(75.55 67.533824) scale(0.1 -0.1)">
       <use xlink:href="#DejaVuSans-33"/>
       <use xlink:href="#DejaVuSans-32" x="63.623047"/>
       <use xlink:href="#DejaVuSans-30" x="127.246094"/>
       <use xlink:href="#DejaVuSans-30" x="190.869141"/>
      </g>
     </g>
    </g>
   </g>
   <g id="line2d_39">
    <path d="M 138.436364 307.571117 
L 143.28678 307.189646 
L 144.499384 307.037057 
L 145.711988 307.037057 
L 146.924593 306.579292 
L 149.349801 306.426703 
L 157.83803 304.824523 
L 160.263238 304.671935 
L 161.475842 304.443052 
L 165.113654 304.214169 
L 166.326259 303.603815 
L 167.538863 303.298638 
L 168.751467 301.925341 
L 169.964071 301.162398 
L 171.176675 298.492098 
L 172.389279 298.33951 
L 173.601883 297.500272 
L 174.814488 297.042507 
L 176.027092 296.432153 
L 179.664904 293.609264 
L 180.877508 292.99891 
L 183.302716 292.083379 
L 184.515321 291.244142 
L 185.727925 290.786376 
L 188.153133 289.336785 
L 189.365737 288.955313 
L 190.578341 287.124251 
L 191.790945 286.208719 
L 193.003549 285.522071 
L 194.216154 284.988011 
L 199.06657 284.301362 
L 202.704382 283.691008 
L 205.129591 283.53842 
L 206.342195 283.309537 
L 207.554799 282.699183 
L 212.405216 282.317711 
L 216.043028 281.93624 
L 217.255632 281.554768 
L 223.318653 280.410354 
L 225.743861 280.181471 
L 226.956465 279.876294 
L 230.594277 279.418529 
L 231.806882 278.808174 
L 233.019486 278.655586 
L 235.444694 277.816349 
L 237.869902 277.587466 
L 239.082506 277.205995 
L 243.932923 276.519346 
L 245.145527 276.137875 
L 247.570735 275.756403 
L 248.783339 275.756403 
L 254.84636 274.99346 
L 257.271568 274.306812 
L 258.484172 274.001635 
L 260.909381 273.772752 
L 262.121985 273.696458 
L 265.759797 273.009809 
L 266.972401 272.552044 
L 268.185005 271.026158 
L 269.39761 270.568392 
L 270.610214 269.958038 
L 271.822818 269.80545 
L 273.035422 269.500272 
L 274.248026 269.347684 
L 276.673234 268.355858 
L 277.885838 268.279564 
L 283.948859 266.677384 
L 285.161463 266.677384 
L 287.586671 266.372207 
L 290.01188 265.685559 
L 293.649692 264.770027 
L 294.862296 264.693733 
L 297.287505 263.701907 
L 298.500109 263.549319 
L 299.712713 263.015259 
L 302.137921 262.786376 
L 303.350525 262.710082 
L 306.988338 262.099728 
L 309.413546 261.718256 
L 313.051358 261.031608 
L 314.263962 260.650136 
L 315.476566 260.497548 
L 317.901775 259.658311 
L 319.114379 258.971662 
L 320.326983 258.666485 
L 321.539587 258.513896 
L 323.964795 257.750954 
L 326.390004 256.453951 
L 327.602608 255.691008 
L 328.815212 255.53842 
L 330.027816 255.156948 
L 331.24042 255.00436 
L 332.453024 254.699183 
L 333.665628 254.546594 
L 334.878233 254.012534 
L 337.303441 253.631063 
L 338.516045 253.020708 
L 339.728649 252.562943 
L 340.941253 252.257766 
L 342.153857 252.105177 
L 343.366461 251.647411 
L 348.216878 250.73188 
L 350.642086 249.740054 
L 351.85469 249.511172 
L 353.067294 249.053406 
L 354.279899 248.900817 
L 355.492503 248.366757 
L 356.705107 248.06158 
L 359.130315 247.908992 
L 361.555523 247.146049 
L 362.768127 246.99346 
L 363.980732 246.99346 
L 365.193336 246.459401 
L 367.618544 246.077929 
L 368.831148 245.620163 
L 371.256356 245.543869 
L 372.468961 245.391281 
L 373.681565 245.391281 
L 376.106773 245.009809 
L 378.531981 243.865395 
L 380.957189 242.797275 
L 382.169794 242.492098 
L 383.382398 241.729155 
L 384.595002 241.347684 
L 387.02021 240.279564 
L 388.232814 240.050681 
L 389.445418 239.516621 
L 390.658022 239.13515 
L 391.870627 238.372207 
L 393.083231 237.761853 
L 394.295835 236.541144 
L 395.508439 234.633787 
L 396.721043 233.107902 
L 397.933647 232.726431 
L 399.146251 232.726431 
L 400.358855 231.963488 
L 401.57146 231.047956 
L 402.784064 230.742779 
L 403.996668 230.132425 
L 405.209272 229.903542 
L 406.421876 228.835422 
L 407.63448 228.530245 
L 411.272293 226.928065 
L 412.484897 225.554768 
L 413.697501 223.8 
L 414.910105 223.113351 
L 416.122709 221.205995 
L 417.335313 220.06158 
L 418.547917 219.52752 
L 419.760522 219.222343 
L 420.973126 218.459401 
L 423.398334 217.314986 
L 424.610938 216.475749 
L 425.823542 215.483924 
L 427.036146 214.644687 
L 428.24875 213.958038 
L 429.461355 212.355858 
L 430.673959 209.685559 
L 431.886563 208.007084 
L 433.099167 207.091553 
L 434.311771 206.557493 
L 439.162188 202.666485 
L 441.587396 200.759128 
L 442.8 199.767302 
L 444.012604 198.088828 
L 445.225208 196.944414 
L 446.437812 196.028883 
L 450.075625 193.66376 
L 451.288229 192.824523 
L 452.500833 191.832698 
L 453.713437 191.52752 
L 454.926041 190.99346 
L 458.563854 189.009809 
L 460.989062 187.865395 
L 463.41427 185.80545 
L 464.626874 184.355858 
L 465.839478 183.516621 
L 467.052083 182.829973 
L 468.264687 182.524796 
L 469.477291 181.914441 
L 470.689895 181.075204 
L 473.115103 179.854496 
L 474.327707 179.625613 
L 475.540311 178.86267 
L 477.96552 177.565668 
L 479.178124 176.421253 
L 480.390728 175.582016 
L 481.603332 175.200545 
L 482.815936 174.437602 
L 484.02854 173.903542 
L 485.241145 173.140599 
L 486.453749 172.682834 
L 487.666353 171.919891 
L 488.878957 170.928065 
L 491.304165 170.088828 
L 492.516769 169.554768 
L 493.729373 169.325886 
L 494.941978 168.562943 
L 496.154582 168.33406 
L 498.57979 167.494823 
L 499.792394 167.113351 
L 502.217602 166.121526 
L 503.430206 165.66376 
L 504.642811 165.358583 
L 505.855415 164.900817 
L 508.280623 164.443052 
L 509.493227 163.374932 
L 510.705831 162.459401 
L 511.918435 162.001635 
L 514.343644 160.704632 
L 516.768852 159.407629 
L 519.19406 158.720981 
L 520.406664 157.80545 
L 521.619268 157.500272 
L 524.044477 155.974387 
L 525.257081 155.364033 
L 528.894893 154.60109 
L 531.320101 153.914441 
L 534.957914 151.93079 
L 536.170518 151.778202 
L 537.383122 151.320436 
L 538.595726 151.167847 
L 539.80833 150.710082 
L 541.020934 149.947139 
L 542.233539 149.031608 
L 543.446143 148.268665 
L 544.658747 148.039782 
L 545.871351 147.429428 
L 547.083955 147.276839 
L 548.296559 146.819074 
L 549.509163 145.979837 
L 550.721767 145.598365 
L 551.934372 145.064305 
L 556.784788 143.767302 
L 557.997392 143.691008 
L 559.209996 143.309537 
L 561.635205 142.241417 
L 562.847809 141.859946 
L 564.060413 141.631063 
L 565.273017 141.097003 
L 566.485621 140.715531 
L 567.698225 140.105177 
L 570.123434 139.418529 
L 571.336038 139.342234 
L 573.761246 138.808174 
L 574.97385 138.274114 
L 576.186454 138.045232 
L 578.611662 137.053406 
L 582.249475 135.374932 
L 584.674683 133.849046 
L 585.887287 133.543869 
L 587.099891 132.857221 
L 588.312495 132.399455 
L 589.5251 131.712807 
L 591.950308 131.102452 
L 593.162912 130.415804 
L 595.58812 129.423978 
L 598.013329 129.042507 
L 599.225933 128.20327 
L 600.438537 127.592916 
L 601.651141 127.364033 
L 602.863745 126.906267 
L 604.076349 126.295913 
L 605.288953 126.06703 
L 606.501557 125.456676 
L 611.351974 124.770027 
L 613.777182 123.701907 
L 614.989786 122.786376 
L 616.20239 120.726431 
L 617.414995 120.421253 
L 618.627599 120.268665 
L 619.840203 119.963488 
L 622.265411 118.666485 
L 623.478015 118.208719 
L 624.690619 117.598365 
L 625.903223 117.293188 
L 628.328432 116.148774 
L 630.75364 115.00436 
L 633.178848 114.012534 
L 634.391452 113.249591 
L 635.604057 112.791826 
L 639.241869 111.952589 
L 641.667077 110.808174 
L 642.879681 110.274114 
L 644.092285 110.045232 
L 647.730098 108.59564 
L 650.155306 107.146049 
L 651.36791 106.306812 
L 652.580514 105.696458 
L 653.793118 105.467575 
L 655.005723 105.009809 
L 656.218327 104.933515 
L 661.068743 103.331335 
L 662.281347 103.255041 
L 663.493951 102.415804 
L 664.706556 102.034332 
L 665.91916 101.500272 
L 669.556972 100.432153 
L 670.769576 99.745504 
L 671.98218 99.364033 
L 673.194784 98.60109 
L 674.407389 98.06703 
L 675.619993 97.304087 
L 681.683013 94.938965 
L 682.895618 94.252316 
L 684.108222 93.413079 
L 685.320826 92.116076 
L 686.53343 91.353134 
L 687.746034 91.124251 
L 690.171242 89.293188 
L 691.383846 88.835422 
L 692.596451 87.080654 
L 693.809055 86.622888 
L 695.021659 85.783651 
L 696.234263 85.554768 
L 697.446867 84.791826 
L 698.659471 84.257766 
L 699.872075 84.028883 
L 701.084679 83.494823 
L 702.297284 82.502997 
L 703.509888 82.121526 
L 705.935096 80.519346 
L 707.1477 79.756403 
L 708.360304 79.222343 
L 710.785512 77.925341 
L 711.998117 77.391281 
L 713.210721 77.238692 
L 714.423325 76.780926 
L 716.848533 75.331335 
L 718.061137 73.500272 
L 719.273741 72.355858 
L 720.486346 71.592916 
L 721.69895 71.287738 
L 724.124158 69.914441 
L 725.336762 69.685559 
L 726.549366 68.99891 
L 730.187179 67.549319 
L 731.399783 66.938965 
L 733.824991 65.26049 
L 736.250199 62.742779 
L 737.462803 61.827248 
L 739.888012 60.377657 
L 741.100616 59.233243 
L 744.738428 56.486649 
L 745.951032 55.8 
L 747.163636 55.8 
L 747.163636 55.8 
" clip-path="url(#p1e11f9d364)" style="fill: none; stroke: #1f77b4; stroke-width: 1.5; stroke-linecap: square"/>
   </g>
   <g id="line2d_40">
    <path d="M 139.648968 307.8 
L 142.074176 307.8 
L 144.499384 307.494823 
L 151.775009 307.418529 
L 155.412821 307.26594 
L 159.050634 307.189646 
L 161.475842 307.113351 
L 165.113654 307.113351 
L 166.326259 306.808174 
L 169.964071 306.73188 
L 176.027092 306.045232 
L 185.727925 305.511172 
L 186.940529 305.511172 
L 188.153133 305.282289 
L 191.790945 305.205995 
L 194.216154 304.900817 
L 199.06657 304.900817 
L 200.279174 304.748229 
L 206.342195 304.671935 
L 209.980007 304.519346 
L 220.893444 304.443052 
L 223.318653 304.366757 
L 228.169069 304.290463 
L 231.806882 304.137875 
L 236.657298 304.137875 
L 237.869902 303.985286 
L 241.507715 303.908992 
L 246.358131 303.680109 
L 254.84636 303.603815 
L 257.271568 303.52752 
L 262.121985 303.451226 
L 265.759797 302.99346 
L 271.822818 302.917166 
L 277.885838 302.611989 
L 283.948859 302.535695 
L 287.586671 302.383106 
L 290.01188 302.306812 
L 292.437088 302.077929 
L 297.287505 301.849046 
L 300.925317 301.772752 
L 303.350525 301.696458 
L 305.775733 301.696458 
L 306.988338 301.543869 
L 310.62615 301.543869 
L 313.051358 301.314986 
L 316.689171 301.162398 
L 322.752191 301.086104 
L 327.602608 300.552044 
L 328.815212 300.475749 
L 330.027816 300.246866 
L 334.878233 300.170572 
L 338.516045 299.865395 
L 340.941253 299.636512 
L 347.004274 299.331335 
L 350.642086 299.255041 
L 354.279899 299.102452 
L 355.492503 299.102452 
L 357.917711 298.873569 
L 360.342919 298.797275 
L 361.555523 298.797275 
L 362.768127 298.644687 
L 365.193336 298.568392 
L 371.256356 298.263215 
L 373.681565 298.186921 
L 377.319377 298.034332 
L 380.957189 297.958038 
L 383.382398 297.881744 
L 389.445418 297.80545 
L 394.295835 297.27139 
L 395.508439 297.27139 
L 397.933647 297.042507 
L 400.358855 296.966213 
L 405.209272 296.584741 
L 406.421876 296.432153 
L 407.63448 296.126975 
L 410.059689 295.974387 
L 411.272293 295.66921 
L 414.910105 295.364033 
L 417.335313 294.829973 
L 419.760522 294.753678 
L 422.18573 294.753678 
L 423.398334 294.60109 
L 424.610938 294.60109 
L 427.036146 294.219619 
L 431.886563 293.380381 
L 433.099167 293.380381 
L 434.311771 293.227793 
L 437.949583 293.151499 
L 453.713437 292.159673 
L 454.926041 291.93079 
L 458.563854 291.701907 
L 460.989062 291.320436 
L 463.41427 291.091553 
L 465.839478 291.015259 
L 468.264687 291.015259 
L 469.477291 290.710082 
L 470.689895 290.557493 
L 475.540311 290.481199 
L 477.96552 290.252316 
L 479.178124 290.252316 
L 482.815936 289.718256 
L 484.02854 289.413079 
L 485.241145 289.26049 
L 487.666353 289.184196 
L 493.729373 288.879019 
L 497.367186 288.802725 
L 513.131039 287.887193 
L 515.556248 287.887193 
L 517.981456 287.658311 
L 520.406664 287.658311 
L 524.044477 287.276839 
L 528.894893 287.047956 
L 531.320101 286.971662 
L 532.532706 286.819074 
L 537.383122 286.742779 
L 545.871351 286.285014 
L 551.934372 286.208719 
L 554.35958 286.132425 
L 555.572184 286.132425 
L 556.784788 285.903542 
L 559.209996 285.827248 
L 566.485621 285.750954 
L 570.123434 285.598365 
L 574.97385 285.522071 
L 576.186454 285.293188 
L 583.462079 285.216894 
L 585.887287 285.140599 
L 588.312495 285.064305 
L 590.737704 284.988011 
L 593.162912 284.911717 
L 602.863745 284.377657 
L 608.926766 284.301362 
L 612.564578 283.996185 
L 614.989786 283.767302 
L 617.414995 283.691008 
L 619.840203 283.614714 
L 621.052807 283.462125 
L 624.690619 283.385831 
L 625.903223 283.080654 
L 630.75364 282.851771 
L 641.667077 282.775477 
L 645.30489 282.4703 
L 650.155306 281.93624 
L 652.580514 281.859946 
L 657.430931 281.783651 
L 661.068743 281.40218 
L 668.344368 281.020708 
L 670.769576 280.944414 
L 675.619993 280.715531 
L 680.470409 280.639237 
L 684.108222 280.486649 
L 688.958638 280.410354 
L 692.596451 280.028883 
L 695.021659 279.952589 
L 699.872075 279.876294 
L 703.509888 279.571117 
L 704.722492 279.418529 
L 705.935096 279.418529 
L 707.1477 279.189646 
L 709.572908 279.113351 
L 714.423325 279.037057 
L 716.848533 278.655586 
L 719.273741 278.655586 
L 720.486346 278.426703 
L 722.911554 278.350409 
L 728.974574 278.274114 
L 731.399783 277.968937 
L 733.824991 277.892643 
L 736.250199 277.816349 
L 737.462803 277.511172 
L 739.888012 277.434877 
L 741.100616 277.282289 
L 743.525824 277.282289 
L 745.951032 276.977112 
L 747.163636 276.977112 
L 747.163636 276.977112 
" clip-path="url(#p1e11f9d364)" style="fill: none; stroke: #ff7f0e; stroke-width: 1.5; stroke-linecap: square"/>
   </g>
   <g id="patch_3">
    <path d="M 108 320.4 
L 108 43.2 
" style="fill: none; stroke: #a9a9a9; stroke-width: 0.8; stroke-linejoin: miter; stroke-linecap: square"/>
   </g>
   <g id="patch_4">
    <path d="M 777.6 320.4 
L 777.6 43.2 
" style="fill: none"/>
   </g>
   <g id="patch_5">
    <path d="M 108 320.4 
L 777.6 320.4 
" style="fill: none; stroke: #a9a9a9; stroke-width: 0.8; stroke-linejoin: miter; stroke-linecap: square"/>
   </g>
   <g id="patch_6">
    <path d="M 108 43.2 
L 777.6 43.2 
" style="fill: none"/>
   </g>
   <g id="text_20">
    <!-- get_subscribe history -->
    <g style="fill: #a9a9a9" transform="translate(378.6075 37.2) scale(0.12 -0.12)">
     <defs>
      <path id="DejaVuSans-67" d="M 2906 1791 
Q 2906 2416 2648 2759 
Q 2391 3103 1925 3103 
Q 1463 3103 1205 2759 
Q 947 2416 947 1791 
Q 947 1169 1205 825 
Q 1463 481 1925 481 
Q 2391 481 2648 825 
Q 2906 1169 2906 1791 
z
M 3481 434 
Q 3481 -459 3084 -895 
Q 2688 -1331 1869 -1331 
Q 1566 -1331 1297 -1286 
Q 1028 -1241 775 -1147 
L 775 -588 
Q 1028 -725 1275 -790 
Q 1522 -856 1778 -856 
Q 2344 -856 2625 -561 
Q 2906 -266 2906 331 
L 2906 616 
Q 2728 306 2450 153 
Q 2172 0 1784 0 
Q 1141 0 747 490 
Q 353 981 353 1791 
Q 353 2603 747 3093 
Q 1141 3584 1784 3584 
Q 2172 3584 2450 3431 
Q 2728 3278 2906 2969 
L 2906 3500 
L 3481 3500 
L 3481 434 
z
" transform="scale(0.015625)"/>
      <path id="DejaVuSans-65" d="M 3597 1894 
L 3597 1613 
L 953 1613 
Q 991 1019 1311 708 
Q 1631 397 2203 397 
Q 2534 397 2845 478 
Q 3156 559 3463 722 
L 3463 178 
Q 3153 47 2828 -22 
Q 2503 -91 2169 -91 
Q 1331 -91 842 396 
Q 353 884 353 1716 
Q 353 2575 817 3079 
Q 1281 3584 2069 3584 
Q 2775 3584 3186 3129 
Q 3597 2675 3597 1894 
z
M 3022 2063 
Q 3016 2534 2758 2815 
Q 2500 3097 2075 3097 
Q 1594 3097 1305 2825 
Q 1016 2553 972 2059 
L 3022 2063 
z
" transform="scale(0.015625)"/>
      <path id="DejaVuSans-74" d="M 1172 4494 
L 1172 3500 
L 2356 3500 
L 2356 3053 
L 1172 3053 
L 1172 1153 
Q 1172 725 1289 603 
Q 1406 481 1766 481 
L 2356 481 
L 2356 0 
L 1766 0 
Q 1100 0 847 248 
Q 594 497 594 1153 
L 594 3053 
L 172 3053 
L 172 3500 
L 594 3500 
L 594 4494 
L 1172 4494 
z
" transform="scale(0.015625)"/>
      <path id="DejaVuSans-5f" d="M 3263 -1063 
L 3263 -1509 
L -63 -1509 
L -63 -1063 
L 3263 -1063 
z
" transform="scale(0.015625)"/>
      <path id="DejaVuSans-73" d="M 2834 3397 
L 2834 2853 
Q 2591 2978 2328 3040 
Q 2066 3103 1784 3103 
Q 1356 3103 1142 2972 
Q 928 2841 928 2578 
Q 928 2378 1081 2264 
Q 1234 2150 1697 2047 
L 1894 2003 
Q 2506 1872 2764 1633 
Q 3022 1394 3022 966 
Q 3022 478 2636 193 
Q 2250 -91 1575 -91 
Q 1294 -91 989 -36 
Q 684 19 347 128 
L 347 722 
Q 666 556 975 473 
Q 1284 391 1588 391 
Q 1994 391 2212 530 
Q 2431 669 2431 922 
Q 2431 1156 2273 1281 
Q 2116 1406 1581 1522 
L 1381 1569 
Q 847 1681 609 1914 
Q 372 2147 372 2553 
Q 372 3047 722 3315 
Q 1072 3584 1716 3584 
Q 2034 3584 2315 3537 
Q 2597 3491 2834 3397 
z
" transform="scale(0.015625)"/>
      <path id="DejaVuSans-75" d="M 544 1381 
L 544 3500 
L 1119 3500 
L 1119 1403 
Q 1119 906 1312 657 
Q 1506 409 1894 409 
Q 2359 409 2629 706 
Q 2900 1003 2900 1516 
L 2900 3500 
L 3475 3500 
L 3475 0 
L 2900 0 
L 2900 538 
Q 2691 219 2414 64 
Q 2138 -91 1772 -91 
Q 1169 -91 856 284 
Q 544 659 544 1381 
z
M 1991 3584 
L 1991 3584 
z
" transform="scale(0.015625)"/>
      <path id="DejaVuSans-62" d="M 3116 1747 
Q 3116 2381 2855 2742 
Q 2594 3103 2138 3103 
Q 1681 3103 1420 2742 
Q 1159 2381 1159 1747 
Q 1159 1113 1420 752 
Q 1681 391 2138 391 
Q 2594 391 2855 752 
Q 3116 1113 3116 1747 
z
M 1159 2969 
Q 1341 3281 1617 3432 
Q 1894 3584 2278 3584 
Q 2916 3584 3314 3078 
Q 3713 2572 3713 1747 
Q 3713 922 3314 415 
Q 2916 -91 2278 -91 
Q 1894 -91 1617 61 
Q 1341 213 1159 525 
L 1159 0 
L 581 0 
L 581 4863 
L 1159 4863 
L 1159 2969 
z
" transform="scale(0.015625)"/>
      <path id="DejaVuSans-63" d="M 3122 3366 
L 3122 2828 
Q 2878 2963 2633 3030 
Q 2388 3097 2138 3097 
Q 1578 3097 1268 2742 
Q 959 2388 959 1747 
Q 959 1106 1268 751 
Q 1578 397 2138 397 
Q 2388 397 2633 464 
Q 2878 531 3122 666 
L 3122 134 
Q 2881 22 2623 -34 
Q 2366 -91 2075 -91 
Q 1284 -91 818 406 
Q 353 903 353 1747 
Q 353 2603 823 3093 
Q 1294 3584 2113 3584 
Q 2378 3584 2631 3529 
Q 2884 3475 3122 3366 
z
" transform="scale(0.015625)"/>
      <path id="DejaVuSans-72" d="M 2631 2963 
Q 2534 3019 2420 3045 
Q 2306 3072 2169 3072 
Q 1681 3072 1420 2755 
Q 1159 2438 1159 1844 
L 1159 0 
L 581 0 
L 581 3500 
L 1159 3500 
L 1159 2956 
Q 1341 3275 1631 3429 
Q 1922 3584 2338 3584 
Q 2397 3584 2469 3576 
Q 2541 3569 2628 3553 
L 2631 2963 
z
" transform="scale(0.015625)"/>
      <path id="DejaVuSans-69" d="M 603 3500 
L 1178 3500 
L 1178 0 
L 603 0 
L 603 3500 
z
M 603 4863 
L 1178 4863 
L 1178 4134 
L 603 4134 
L 603 4863 
z
" transform="scale(0.015625)"/>
      <path id="DejaVuSans-20" transform="scale(0.015625)"/>
      <path id="DejaVuSans-68" d="M 3513 2113 
L 3513 0 
L 2938 0 
L 2938 2094 
Q 2938 2591 2744 2837 
Q 2550 3084 2163 3084 
Q 1697 3084 1428 2787 
Q 1159 2491 1159 1978 
L 1159 0 
L 581 0 
L 581 4863 
L 1159 4863 
L 1159 2956 
Q 1366 3272 1645 3428 
Q 1925 3584 2291 3584 
Q 2894 3584 3203 3211 
Q 3513 2838 3513 2113 
z
" transform="scale(0.015625)"/>
      <path id="DejaVuSans-6f" d="M 1959 3097 
Q 1497 3097 1228 2736 
Q 959 2375 959 1747 
Q 959 1119 1226 758 
Q 1494 397 1959 397 
Q 2419 397 2687 759 
Q 2956 1122 2956 1747 
Q 2956 2369 2687 2733 
Q 2419 3097 1959 3097 
z
M 1959 3584 
Q 2709 3584 3137 3096 
Q 3566 2609 3566 1747 
Q 3566 888 3137 398 
Q 2709 -91 1959 -91 
Q 1206 -91 779 398 
Q 353 888 353 1747 
Q 353 2609 779 3096 
Q 1206 3584 1959 3584 
z
" transform="scale(0.015625)"/>
      <path id="DejaVuSans-79" d="M 2059 -325 
Q 1816 -950 1584 -1140 
Q 1353 -1331 966 -1331 
L 506 -1331 
L 506 -850 
L 844 -850 
Q 1081 -850 1212 -737 
Q 1344 -625 1503 -206 
L 1606 56 
L 191 3500 
L 800 3500 
L 1894 763 
L 2988 3500 
L 3597 3500 
L 2059 -325 
z
" transform="scale(0.015625)"/>
     </defs>
     <use xlink:href="#DejaVuSans-67"/>
     <use xlink:href="#DejaVuSans-65" x="63.476562"/>
     <use xlink:href="#DejaVuSans-74" x="125"/>
     <use xlink:href="#DejaVuSans-5f" x="164.208984"/>
     <use xlink:href="#DejaVuSans-73" x="214.208984"/>
     <use xlink:href="#DejaVuSans-75" x="266.308594"/>
     <use xlink:href="#DejaVuSans-62" x="329.6875"/>
     <use xlink:href="#DejaVuSans-73" x="393.164062"/>
     <use xlink:href="#DejaVuSans-63" x="445.263672"/>
     <use xlink:href="#DejaVuSans-72" x="500.244141"/>
     <use xlink:href="#DejaVuSans-69" x="541.357422"/>
     <use xlink:href="#DejaVuSans-62" x="569.140625"/>
     <use xlink:href="#DejaVuSans-65" x="632.617188"/>
     <use xlink:href="#DejaVuSans-20" x="694.140625"/>
     <use xlink:href="#DejaVuSans-68" x="725.927734"/>
     <use xlink:href="#DejaVuSans-69" x="789.306641"/>
     <use xlink:href="#DejaVuSans-73" x="817.089844"/>
     <use xlink:href="#DejaVuSans-74" x="869.189453"/>
     <use xlink:href="#DejaVuSans-6f" x="908.398438"/>
     <use xlink:href="#DejaVuSans-72" x="969.580078"/>
     <use xlink:href="#DejaVuSans-79" x="1010.693359"/>
    </g>
   </g>
   <g id="legend_1">
    <g id="line2d_41">
     <path d="M 815.08 328.498438 
L 825.08 328.498438 
L 835.08 328.498438 
" style="fill: none; stroke: #1f77b4; stroke-width: 1.5; stroke-linecap: square"/>
    </g>
    <g id="text_21">
     <!-- star -->
     <g style="fill: #a9a9a9" transform="translate(843.08 331.998438) scale(0.1 -0.1)">
      <defs>
       <path id="DejaVuSans-61" d="M 2194 1759 
Q 1497 1759 1228 1600 
Q 959 1441 959 1056 
Q 959 750 1161 570 
Q 1363 391 1709 391 
Q 2188 391 2477 730 
Q 2766 1069 2766 1631 
L 2766 1759 
L 2194 1759 
z
M 3341 1997 
L 3341 0 
L 2766 0 
L 2766 531 
Q 2569 213 2275 61 
Q 1981 -91 1556 -91 
Q 1019 -91 701 211 
Q 384 513 384 1019 
Q 384 1609 779 1909 
Q 1175 2209 1959 2209 
L 2766 2209 
L 2766 2266 
Q 2766 2663 2505 2880 
Q 2244 3097 1772 3097 
Q 1472 3097 1187 3025 
Q 903 2953 641 2809 
L 641 3341 
Q 956 3463 1253 3523 
Q 1550 3584 1831 3584 
Q 2591 3584 2966 3190 
Q 3341 2797 3341 1997 
z
" transform="scale(0.015625)"/>
      </defs>
      <use xlink:href="#DejaVuSans-73"/>
      <use xlink:href="#DejaVuSans-74" x="52.099609"/>
      <use xlink:href="#DejaVuSans-61" x="91.308594"/>
      <use xlink:href="#DejaVuSans-72" x="152.587891"/>
     </g>
    </g>
    <g id="line2d_42">
     <path d="M 815.08 343.176562 
L 825.08 343.176562 
L 835.08 343.176562 
" style="fill: none; stroke: #ff7f0e; stroke-width: 1.5; stroke-linecap: square"/>
    </g>
    <g id="text_22">
     <!-- fork -->
     <g style="fill: #a9a9a9" transform="translate(843.08 346.676562) scale(0.1 -0.1)">
      <defs>
       <path id="DejaVuSans-66" d="M 2375 4863 
L 2375 4384 
L 1825 4384 
Q 1516 4384 1395 4259 
Q 1275 4134 1275 3809 
L 1275 3500 
L 2222 3500 
L 2222 3053 
L 1275 3053 
L 1275 0 
L 697 0 
L 697 3053 
L 147 3053 
L 147 3500 
L 697 3500 
L 697 3744 
Q 697 4328 969 4595 
Q 1241 4863 1831 4863 
L 2375 4863 
z
" transform="scale(0.015625)"/>
       <path id="DejaVuSans-6b" d="M 581 4863 
L 1159 4863 
L 1159 1991 
L 2875 3500 
L 3609 3500 
L 1753 1863 
L 3688 0 
L 2938 0 
L 1159 1709 
L 1159 0 
L 581 0 
L 581 4863 
z
" transform="scale(0.015625)"/>
      </defs>
      <use xlink:href="#DejaVuSans-66"/>
      <use xlink:href="#DejaVuSans-6f" x="35.205078"/>
      <use xlink:href="#DejaVuSans-72" x="96.386719"/>
      <use xlink:href="#DejaVuSans-6b" x="137.5"/>
     </g>
    </g>
   </g>
  </g>
 </g>
 <defs>
  <clipPath id="p1e11f9d364">
   <rect x="108" y="43.2" width="669.6" height="277.2"/>
  </clipPath>
 </defs>
</svg>
