<?xml version="1.0" encoding="utf-8" standalone="no"?>
<!DOCTYPE svg PUBLIC "-//W3C//DTD SVG 1.1//EN"
  "http://www.w3.org/Graphics/SVG/1.1/DTD/svg11.dtd">
<svg xmlns:xlink="http://www.w3.org/1999/xlink" width="864pt" height="360pt" viewBox="0 0 864 360" xmlns="http://www.w3.org/2000/svg" version="1.1">
 <metadata>
  <rdf:RDF xmlns:dc="http://purl.org/dc/elements/1.1/" xmlns:cc="http://creativecommons.org/ns#" xmlns:rdf="http://www.w3.org/1999/02/22-rdf-syntax-ns#">
   <cc:Work>
    <dc:type rdf:resource="http://purl.org/dc/dcmitype/StillImage"/>
    <dc:date>2022-12-07T08:59:36.189414</dc:date>
    <dc:format>image/svg+xml</dc:format>
    <dc:creator>
     <cc:Agent>
      <dc:title>Matplotlib v3.6.2, https://matplotlib.org/</dc:title>
     </cc:Agent>
    </dc:creator>
   </cc:Work>
  </rdf:RDF>
 </metadata>
 <defs>
  <style type="text/css">*{stroke-linejoin: round; stroke-linecap: butt}</style>
 </defs>
 <g id="figure_1">
  <g id="patch_1">
   <path d="M 0 360 
L 864 360 
L 864 0 
L 0 0 
L 0 360 
z
" style="fill: none; opacity: 0"/>
  </g>
  <g id="axes_1">
   <g id="patch_2">
    <path d="M 108 320.4 
L 777.6 320.4 
L 777.6 43.2 
L 108 43.2 
L 108 320.4 
z
" style="fill: none; opacity: 0"/>
   </g>
   <g id="matplotlib.axis_1">
    <g id="xtick_1">
     <g id="line2d_1">
      <path d="M 110.4908 320.4 
L 110.4908 43.2 
" clip-path="url(#p04475811cf)" style="fill: none; stroke-dasharray: 5.12,1.28,0.8,1.28; stroke-dashoffset: 0; stroke: #b0b0b0; stroke-width: 0.8"/>
     </g>
     <g id="line2d_2">
      <defs>
       <path id="mc60609851f" d="M 0 0 
L 0 3.5 
" style="stroke: #a9a9a9; stroke-width: 0.8"/>
      </defs>
      <g>
       <use xlink:href="#mc60609851f" x="110.4908" y="320.4" style="fill: #a9a9a9; stroke: #a9a9a9; stroke-width: 0.8"/>
      </g>
     </g>
     <g id="text_1">
      <!-- 2021-07 -->
      <g style="fill: #a9a9a9" transform="translate(89.599394 334.998438) scale(0.1 -0.1)">
       <defs>
        <path id="DejaVuSans-32" d="M 1228 531 
L 3431 531 
L 3431 0 
L 469 0 
L 469 531 
Q 828 903 1448 1529 
Q 2069 2156 2228 2338 
Q 2531 2678 2651 2914 
Q 2772 3150 2772 3378 
Q 2772 3750 2511 3984 
Q 2250 4219 1831 4219 
Q 1534 4219 1204 4116 
Q 875 4013 500 3803 
L 500 4441 
Q 881 4594 1212 4672 
Q 1544 4750 1819 4750 
Q 2544 4750 2975 4387 
Q 3406 4025 3406 3419 
Q 3406 3131 3298 2873 
Q 3191 2616 2906 2266 
Q 2828 2175 2409 1742 
Q 1991 1309 1228 531 
z
" transform="scale(0.015625)"/>
        <path id="DejaVuSans-30" d="M 2034 4250 
Q 1547 4250 1301 3770 
Q 1056 3291 1056 2328 
Q 1056 1369 1301 889 
Q 1547 409 2034 409 
Q 2525 409 2770 889 
Q 3016 1369 3016 2328 
Q 3016 3291 2770 3770 
Q 2525 4250 2034 4250 
z
M 2034 4750 
Q 2819 4750 3233 4129 
Q 3647 3509 3647 2328 
Q 3647 1150 3233 529 
Q 2819 -91 2034 -91 
Q 1250 -91 836 529 
Q 422 1150 422 2328 
Q 422 3509 836 4129 
Q 1250 4750 2034 4750 
z
" transform="scale(0.015625)"/>
        <path id="DejaVuSans-31" d="M 794 531 
L 1825 531 
L 1825 4091 
L 703 3866 
L 703 4441 
L 1819 4666 
L 2450 4666 
L 2450 531 
L 3481 531 
L 3481 0 
L 794 0 
L 794 531 
z
" transform="scale(0.015625)"/>
        <path id="DejaVuSans-2d" d="M 313 2009 
L 1997 2009 
L 1997 1497 
L 313 1497 
L 313 2009 
z
" transform="scale(0.015625)"/>
        <path id="DejaVuSans-37" d="M 525 4666 
L 3525 4666 
L 3525 4397 
L 1831 0 
L 1172 0 
L 2766 4134 
L 525 4134 
L 525 4666 
z
" transform="scale(0.015625)"/>
       </defs>
       <use xlink:href="#DejaVuSans-32"/>
       <use xlink:href="#DejaVuSans-30" x="63.623047"/>
       <use xlink:href="#DejaVuSans-32" x="127.246094"/>
       <use xlink:href="#DejaVuSans-31" x="190.869141"/>
       <use xlink:href="#DejaVuSans-2d" x="254.492188"/>
       <use xlink:href="#DejaVuSans-30" x="290.576172"/>
       <use xlink:href="#DejaVuSans-37" x="354.199219"/>
      </g>
     </g>
    </g>
    <g id="xtick_2">
     <g id="line2d_3">
      <path d="M 185.822319 320.4 
L 185.822319 43.2 
" clip-path="url(#p04475811cf)" style="fill: none; stroke-dasharray: 5.12,1.28,0.8,1.28; stroke-dashoffset: 0; stroke: #b0b0b0; stroke-width: 0.8"/>
     </g>
     <g id="line2d_4">
      <g>
       <use xlink:href="#mc60609851f" x="185.822319" y="320.4" style="fill: #a9a9a9; stroke: #a9a9a9; stroke-width: 0.8"/>
      </g>
     </g>
     <g id="text_2">
      <!-- 2021-09 -->
      <g style="fill: #a9a9a9" transform="translate(164.930913 334.998438) scale(0.1 -0.1)">
       <defs>
        <path id="DejaVuSans-39" d="M 703 97 
L 703 672 
Q 941 559 1184 500 
Q 1428 441 1663 441 
Q 2288 441 2617 861 
Q 2947 1281 2994 2138 
Q 2813 1869 2534 1725 
Q 2256 1581 1919 1581 
Q 1219 1581 811 2004 
Q 403 2428 403 3163 
Q 403 3881 828 4315 
Q 1253 4750 1959 4750 
Q 2769 4750 3195 4129 
Q 3622 3509 3622 2328 
Q 3622 1225 3098 567 
Q 2575 -91 1691 -91 
Q 1453 -91 1209 -44 
Q 966 3 703 97 
z
M 1959 2075 
Q 2384 2075 2632 2365 
Q 2881 2656 2881 3163 
Q 2881 3666 2632 3958 
Q 2384 4250 1959 4250 
Q 1534 4250 1286 3958 
Q 1038 3666 1038 3163 
Q 1038 2656 1286 2365 
Q 1534 2075 1959 2075 
z
" transform="scale(0.015625)"/>
       </defs>
       <use xlink:href="#DejaVuSans-32"/>
       <use xlink:href="#DejaVuSans-30" x="63.623047"/>
       <use xlink:href="#DejaVuSans-32" x="127.246094"/>
       <use xlink:href="#DejaVuSans-31" x="190.869141"/>
       <use xlink:href="#DejaVuSans-2d" x="254.492188"/>
       <use xlink:href="#DejaVuSans-30" x="290.576172"/>
       <use xlink:href="#DejaVuSans-39" x="354.199219"/>
      </g>
     </g>
    </g>
    <g id="xtick_3">
     <g id="line2d_5">
      <path d="M 259.938813 320.4 
L 259.938813 43.2 
" clip-path="url(#p04475811cf)" style="fill: none; stroke-dasharray: 5.12,1.28,0.8,1.28; stroke-dashoffset: 0; stroke: #b0b0b0; stroke-width: 0.8"/>
     </g>
     <g id="line2d_6">
      <g>
       <use xlink:href="#mc60609851f" x="259.938813" y="320.4" style="fill: #a9a9a9; stroke: #a9a9a9; stroke-width: 0.8"/>
      </g>
     </g>
     <g id="text_3">
      <!-- 2021-11 -->
      <g style="fill: #a9a9a9" transform="translate(239.047407 334.998438) scale(0.1 -0.1)">
       <use xlink:href="#DejaVuSans-32"/>
       <use xlink:href="#DejaVuSans-30" x="63.623047"/>
       <use xlink:href="#DejaVuSans-32" x="127.246094"/>
       <use xlink:href="#DejaVuSans-31" x="190.869141"/>
       <use xlink:href="#DejaVuSans-2d" x="254.492188"/>
       <use xlink:href="#DejaVuSans-31" x="290.576172"/>
       <use xlink:href="#DejaVuSans-31" x="354.199219"/>
      </g>
     </g>
    </g>
    <g id="xtick_4">
     <g id="line2d_7">
      <path d="M 334.055308 320.4 
L 334.055308 43.2 
" clip-path="url(#p04475811cf)" style="fill: none; stroke-dasharray: 5.12,1.28,0.8,1.28; stroke-dashoffset: 0; stroke: #b0b0b0; stroke-width: 0.8"/>
     </g>
     <g id="line2d_8">
      <g>
       <use xlink:href="#mc60609851f" x="334.055308" y="320.4" style="fill: #a9a9a9; stroke: #a9a9a9; stroke-width: 0.8"/>
      </g>
     </g>
     <g id="text_4">
      <!-- 2022-01 -->
      <g style="fill: #a9a9a9" transform="translate(313.163901 334.998438) scale(0.1 -0.1)">
       <use xlink:href="#DejaVuSans-32"/>
       <use xlink:href="#DejaVuSans-30" x="63.623047"/>
       <use xlink:href="#DejaVuSans-32" x="127.246094"/>
       <use xlink:href="#DejaVuSans-32" x="190.869141"/>
       <use xlink:href="#DejaVuSans-2d" x="254.492188"/>
       <use xlink:href="#DejaVuSans-30" x="290.576172"/>
       <use xlink:href="#DejaVuSans-31" x="354.199219"/>
      </g>
     </g>
    </g>
    <g id="xtick_5">
     <g id="line2d_9">
      <path d="M 405.741753 320.4 
L 405.741753 43.2 
" clip-path="url(#p04475811cf)" style="fill: none; stroke-dasharray: 5.12,1.28,0.8,1.28; stroke-dashoffset: 0; stroke: #b0b0b0; stroke-width: 0.8"/>
     </g>
     <g id="line2d_10">
      <g>
       <use xlink:href="#mc60609851f" x="405.741753" y="320.4" style="fill: #a9a9a9; stroke: #a9a9a9; stroke-width: 0.8"/>
      </g>
     </g>
     <g id="text_5">
      <!-- 2022-03 -->
      <g style="fill: #a9a9a9" transform="translate(384.850347 334.998438) scale(0.1 -0.1)">
       <defs>
        <path id="DejaVuSans-33" d="M 2597 2516 
Q 3050 2419 3304 2112 
Q 3559 1806 3559 1356 
Q 3559 666 3084 287 
Q 2609 -91 1734 -91 
Q 1441 -91 1130 -33 
Q 819 25 488 141 
L 488 750 
Q 750 597 1062 519 
Q 1375 441 1716 441 
Q 2309 441 2620 675 
Q 2931 909 2931 1356 
Q 2931 1769 2642 2001 
Q 2353 2234 1838 2234 
L 1294 2234 
L 1294 2753 
L 1863 2753 
Q 2328 2753 2575 2939 
Q 2822 3125 2822 3475 
Q 2822 3834 2567 4026 
Q 2313 4219 1838 4219 
Q 1578 4219 1281 4162 
Q 984 4106 628 3988 
L 628 4550 
Q 988 4650 1302 4700 
Q 1616 4750 1894 4750 
Q 2613 4750 3031 4423 
Q 3450 4097 3450 3541 
Q 3450 3153 3228 2886 
Q 3006 2619 2597 2516 
z
" transform="scale(0.015625)"/>
       </defs>
       <use xlink:href="#DejaVuSans-32"/>
       <use xlink:href="#DejaVuSans-30" x="63.623047"/>
       <use xlink:href="#DejaVuSans-32" x="127.246094"/>
       <use xlink:href="#DejaVuSans-32" x="190.869141"/>
       <use xlink:href="#DejaVuSans-2d" x="254.492188"/>
       <use xlink:href="#DejaVuSans-30" x="290.576172"/>
       <use xlink:href="#DejaVuSans-33" x="354.199219"/>
      </g>
     </g>
    </g>
    <g id="xtick_6">
     <g id="line2d_11">
      <path d="M 479.858247 320.4 
L 479.858247 43.2 
" clip-path="url(#p04475811cf)" style="fill: none; stroke-dasharray: 5.12,1.28,0.8,1.28; stroke-dashoffset: 0; stroke: #b0b0b0; stroke-width: 0.8"/>
     </g>
     <g id="line2d_12">
      <g>
       <use xlink:href="#mc60609851f" x="479.858247" y="320.4" style="fill: #a9a9a9; stroke: #a9a9a9; stroke-width: 0.8"/>
      </g>
     </g>
     <g id="text_6">
      <!-- 2022-05 -->
      <g style="fill: #a9a9a9" transform="translate(458.966841 334.998438) scale(0.1 -0.1)">
       <defs>
        <path id="DejaVuSans-35" d="M 691 4666 
L 3169 4666 
L 3169 4134 
L 1269 4134 
L 1269 2991 
Q 1406 3038 1543 3061 
Q 1681 3084 1819 3084 
Q 2600 3084 3056 2656 
Q 3513 2228 3513 1497 
Q 3513 744 3044 326 
Q 2575 -91 1722 -91 
Q 1428 -91 1123 -41 
Q 819 9 494 109 
L 494 744 
Q 775 591 1075 516 
Q 1375 441 1709 441 
Q 2250 441 2565 725 
Q 2881 1009 2881 1497 
Q 2881 1984 2565 2268 
Q 2250 2553 1709 2553 
Q 1456 2553 1204 2497 
Q 953 2441 691 2322 
L 691 4666 
z
" transform="scale(0.015625)"/>
       </defs>
       <use xlink:href="#DejaVuSans-32"/>
       <use xlink:href="#DejaVuSans-30" x="63.623047"/>
       <use xlink:href="#DejaVuSans-32" x="127.246094"/>
       <use xlink:href="#DejaVuSans-32" x="190.869141"/>
       <use xlink:href="#DejaVuSans-2d" x="254.492188"/>
       <use xlink:href="#DejaVuSans-30" x="290.576172"/>
       <use xlink:href="#DejaVuSans-35" x="354.199219"/>
      </g>
     </g>
    </g>
    <g id="xtick_7">
     <g id="line2d_13">
      <path d="M 553.974741 320.4 
L 553.974741 43.2 
" clip-path="url(#p04475811cf)" style="fill: none; stroke-dasharray: 5.12,1.28,0.8,1.28; stroke-dashoffset: 0; stroke: #b0b0b0; stroke-width: 0.8"/>
     </g>
     <g id="line2d_14">
      <g>
       <use xlink:href="#mc60609851f" x="553.974741" y="320.4" style="fill: #a9a9a9; stroke: #a9a9a9; stroke-width: 0.8"/>
      </g>
     </g>
     <g id="text_7">
      <!-- 2022-07 -->
      <g style="fill: #a9a9a9" transform="translate(533.083335 334.998438) scale(0.1 -0.1)">
       <use xlink:href="#DejaVuSans-32"/>
       <use xlink:href="#DejaVuSans-30" x="63.623047"/>
       <use xlink:href="#DejaVuSans-32" x="127.246094"/>
       <use xlink:href="#DejaVuSans-32" x="190.869141"/>
       <use xlink:href="#DejaVuSans-2d" x="254.492188"/>
       <use xlink:href="#DejaVuSans-30" x="290.576172"/>
       <use xlink:href="#DejaVuSans-37" x="354.199219"/>
      </g>
     </g>
    </g>
    <g id="xtick_8">
     <g id="line2d_15">
      <path d="M 629.30626 320.4 
L 629.30626 43.2 
" clip-path="url(#p04475811cf)" style="fill: none; stroke-dasharray: 5.12,1.28,0.8,1.28; stroke-dashoffset: 0; stroke: #b0b0b0; stroke-width: 0.8"/>
     </g>
     <g id="line2d_16">
      <g>
       <use xlink:href="#mc60609851f" x="629.30626" y="320.4" style="fill: #a9a9a9; stroke: #a9a9a9; stroke-width: 0.8"/>
      </g>
     </g>
     <g id="text_8">
      <!-- 2022-09 -->
      <g style="fill: #a9a9a9" transform="translate(608.414854 334.998438) scale(0.1 -0.1)">
       <use xlink:href="#DejaVuSans-32"/>
       <use xlink:href="#DejaVuSans-30" x="63.623047"/>
       <use xlink:href="#DejaVuSans-32" x="127.246094"/>
       <use xlink:href="#DejaVuSans-32" x="190.869141"/>
       <use xlink:href="#DejaVuSans-2d" x="254.492188"/>
       <use xlink:href="#DejaVuSans-30" x="290.576172"/>
       <use xlink:href="#DejaVuSans-39" x="354.199219"/>
      </g>
     </g>
    </g>
    <g id="xtick_9">
     <g id="line2d_17">
      <path d="M 703.422754 320.4 
L 703.422754 43.2 
" clip-path="url(#p04475811cf)" style="fill: none; stroke-dasharray: 5.12,1.28,0.8,1.28; stroke-dashoffset: 0; stroke: #b0b0b0; stroke-width: 0.8"/>
     </g>
     <g id="line2d_18">
      <g>
       <use xlink:href="#mc60609851f" x="703.422754" y="320.4" style="fill: #a9a9a9; stroke: #a9a9a9; stroke-width: 0.8"/>
      </g>
     </g>
     <g id="text_9">
      <!-- 2022-11 -->
      <g style="fill: #a9a9a9" transform="translate(682.531348 334.998438) scale(0.1 -0.1)">
       <use xlink:href="#DejaVuSans-32"/>
       <use xlink:href="#DejaVuSans-30" x="63.623047"/>
       <use xlink:href="#DejaVuSans-32" x="127.246094"/>
       <use xlink:href="#DejaVuSans-32" x="190.869141"/>
       <use xlink:href="#DejaVuSans-2d" x="254.492188"/>
       <use xlink:href="#DejaVuSans-31" x="290.576172"/>
       <use xlink:href="#DejaVuSans-31" x="354.199219"/>
      </g>
     </g>
    </g>
    <g id="xtick_10">
     <g id="line2d_19">
      <path d="M 777.539249 320.4 
L 777.539249 43.2 
" clip-path="url(#p04475811cf)" style="fill: none; stroke-dasharray: 5.12,1.28,0.8,1.28; stroke-dashoffset: 0; stroke: #b0b0b0; stroke-width: 0.8"/>
     </g>
     <g id="line2d_20">
      <g>
       <use xlink:href="#mc60609851f" x="777.539249" y="320.4" style="fill: #a9a9a9; stroke: #a9a9a9; stroke-width: 0.8"/>
      </g>
     </g>
     <g id="text_10">
      <!-- 2023-01 -->
      <g style="fill: #a9a9a9" transform="translate(756.647843 334.998438) scale(0.1 -0.1)">
       <use xlink:href="#DejaVuSans-32"/>
       <use xlink:href="#DejaVuSans-30" x="63.623047"/>
       <use xlink:href="#DejaVuSans-32" x="127.246094"/>
       <use xlink:href="#DejaVuSans-33" x="190.869141"/>
       <use xlink:href="#DejaVuSans-2d" x="254.492188"/>
       <use xlink:href="#DejaVuSans-30" x="290.576172"/>
       <use xlink:href="#DejaVuSans-31" x="354.199219"/>
      </g>
     </g>
    </g>
   </g>
   <g id="matplotlib.axis_2">
    <g id="ytick_1">
     <g id="line2d_21">
      <path d="M 108 307.876503 
L 777.6 307.876503 
" clip-path="url(#p04475811cf)" style="fill: none; stroke-dasharray: 5.12,1.28,0.8,1.28; stroke-dashoffset: 0; stroke: #b0b0b0; stroke-width: 0.8"/>
     </g>
     <g id="line2d_22">
      <defs>
       <path id="m5ff3ee2ee4" d="M 0 0 
L -3.5 0 
" style="stroke: #a9a9a9; stroke-width: 0.8"/>
      </defs>
      <g>
       <use xlink:href="#m5ff3ee2ee4" x="108" y="307.876503" style="fill: #a9a9a9; stroke: #a9a9a9; stroke-width: 0.8"/>
      </g>
     </g>
     <g id="text_11">
      <!-- 0 -->
      <g style="fill: #a9a9a9" transform="translate(94.6375 311.675721) scale(0.1 -0.1)">
       <use xlink:href="#DejaVuSans-30"/>
      </g>
     </g>
    </g>
    <g id="ytick_2">
     <g id="line2d_23">
      <path d="M 108 277.27541 
L 777.6 277.27541 
" clip-path="url(#p04475811cf)" style="fill: none; stroke-dasharray: 5.12,1.28,0.8,1.28; stroke-dashoffset: 0; stroke: #b0b0b0; stroke-width: 0.8"/>
     </g>
     <g id="line2d_24">
      <g>
       <use xlink:href="#m5ff3ee2ee4" x="108" y="277.27541" style="fill: #a9a9a9; stroke: #a9a9a9; stroke-width: 0.8"/>
      </g>
     </g>
     <g id="text_12">
      <!-- 400 -->
      <g style="fill: #a9a9a9" transform="translate(81.9125 281.074629) scale(0.1 -0.1)">
       <defs>
        <path id="DejaVuSans-34" d="M 2419 4116 
L 825 1625 
L 2419 1625 
L 2419 4116 
z
M 2253 4666 
L 3047 4666 
L 3047 1625 
L 3713 1625 
L 3713 1100 
L 3047 1100 
L 3047 0 
L 2419 0 
L 2419 1100 
L 313 1100 
L 313 1709 
L 2253 4666 
z
" transform="scale(0.015625)"/>
       </defs>
       <use xlink:href="#DejaVuSans-34"/>
       <use xlink:href="#DejaVuSans-30" x="63.623047"/>
       <use xlink:href="#DejaVuSans-30" x="127.246094"/>
      </g>
     </g>
    </g>
    <g id="ytick_3">
     <g id="line2d_25">
      <path d="M 108 246.674317 
L 777.6 246.674317 
" clip-path="url(#p04475811cf)" style="fill: none; stroke-dasharray: 5.12,1.28,0.8,1.28; stroke-dashoffset: 0; stroke: #b0b0b0; stroke-width: 0.8"/>
     </g>
     <g id="line2d_26">
      <g>
       <use xlink:href="#m5ff3ee2ee4" x="108" y="246.674317" style="fill: #a9a9a9; stroke: #a9a9a9; stroke-width: 0.8"/>
      </g>
     </g>
     <g id="text_13">
      <!-- 800 -->
      <g style="fill: #a9a9a9" transform="translate(81.9125 250.473536) scale(0.1 -0.1)">
       <defs>
        <path id="DejaVuSans-38" d="M 2034 2216 
Q 1584 2216 1326 1975 
Q 1069 1734 1069 1313 
Q 1069 891 1326 650 
Q 1584 409 2034 409 
Q 2484 409 2743 651 
Q 3003 894 3003 1313 
Q 3003 1734 2745 1975 
Q 2488 2216 2034 2216 
z
M 1403 2484 
Q 997 2584 770 2862 
Q 544 3141 544 3541 
Q 544 4100 942 4425 
Q 1341 4750 2034 4750 
Q 2731 4750 3128 4425 
Q 3525 4100 3525 3541 
Q 3525 3141 3298 2862 
Q 3072 2584 2669 2484 
Q 3125 2378 3379 2068 
Q 3634 1759 3634 1313 
Q 3634 634 3220 271 
Q 2806 -91 2034 -91 
Q 1263 -91 848 271 
Q 434 634 434 1313 
Q 434 1759 690 2068 
Q 947 2378 1403 2484 
z
M 1172 3481 
Q 1172 3119 1398 2916 
Q 1625 2713 2034 2713 
Q 2441 2713 2670 2916 
Q 2900 3119 2900 3481 
Q 2900 3844 2670 4047 
Q 2441 4250 2034 4250 
Q 1625 4250 1398 4047 
Q 1172 3844 1172 3481 
z
" transform="scale(0.015625)"/>
       </defs>
       <use xlink:href="#DejaVuSans-38"/>
       <use xlink:href="#DejaVuSans-30" x="63.623047"/>
       <use xlink:href="#DejaVuSans-30" x="127.246094"/>
      </g>
     </g>
    </g>
    <g id="ytick_4">
     <g id="line2d_27">
      <path d="M 108 216.073224 
L 777.6 216.073224 
" clip-path="url(#p04475811cf)" style="fill: none; stroke-dasharray: 5.12,1.28,0.8,1.28; stroke-dashoffset: 0; stroke: #b0b0b0; stroke-width: 0.8"/>
     </g>
     <g id="line2d_28">
      <g>
       <use xlink:href="#m5ff3ee2ee4" x="108" y="216.073224" style="fill: #a9a9a9; stroke: #a9a9a9; stroke-width: 0.8"/>
      </g>
     </g>
     <g id="text_14">
      <!-- 1200 -->
      <g style="fill: #a9a9a9" transform="translate(75.55 219.872443) scale(0.1 -0.1)">
       <use xlink:href="#DejaVuSans-31"/>
       <use xlink:href="#DejaVuSans-32" x="63.623047"/>
       <use xlink:href="#DejaVuSans-30" x="127.246094"/>
       <use xlink:href="#DejaVuSans-30" x="190.869141"/>
      </g>
     </g>
    </g>
    <g id="ytick_5">
     <g id="line2d_29">
      <path d="M 108 185.472131 
L 777.6 185.472131 
" clip-path="url(#p04475811cf)" style="fill: none; stroke-dasharray: 5.12,1.28,0.8,1.28; stroke-dashoffset: 0; stroke: #b0b0b0; stroke-width: 0.8"/>
     </g>
     <g id="line2d_30">
      <g>
       <use xlink:href="#m5ff3ee2ee4" x="108" y="185.472131" style="fill: #a9a9a9; stroke: #a9a9a9; stroke-width: 0.8"/>
      </g>
     </g>
     <g id="text_15">
      <!-- 1600 -->
      <g style="fill: #a9a9a9" transform="translate(75.55 189.27135) scale(0.1 -0.1)">
       <defs>
        <path id="DejaVuSans-36" d="M 2113 2584 
Q 1688 2584 1439 2293 
Q 1191 2003 1191 1497 
Q 1191 994 1439 701 
Q 1688 409 2113 409 
Q 2538 409 2786 701 
Q 3034 994 3034 1497 
Q 3034 2003 2786 2293 
Q 2538 2584 2113 2584 
z
M 3366 4563 
L 3366 3988 
Q 3128 4100 2886 4159 
Q 2644 4219 2406 4219 
Q 1781 4219 1451 3797 
Q 1122 3375 1075 2522 
Q 1259 2794 1537 2939 
Q 1816 3084 2150 3084 
Q 2853 3084 3261 2657 
Q 3669 2231 3669 1497 
Q 3669 778 3244 343 
Q 2819 -91 2113 -91 
Q 1303 -91 875 529 
Q 447 1150 447 2328 
Q 447 3434 972 4092 
Q 1497 4750 2381 4750 
Q 2619 4750 2861 4703 
Q 3103 4656 3366 4563 
z
" transform="scale(0.015625)"/>
       </defs>
       <use xlink:href="#DejaVuSans-31"/>
       <use xlink:href="#DejaVuSans-36" x="63.623047"/>
       <use xlink:href="#DejaVuSans-30" x="127.246094"/>
       <use xlink:href="#DejaVuSans-30" x="190.869141"/>
      </g>
     </g>
    </g>
    <g id="ytick_6">
     <g id="line2d_31">
      <path d="M 108 154.871038 
L 777.6 154.871038 
" clip-path="url(#p04475811cf)" style="fill: none; stroke-dasharray: 5.12,1.28,0.8,1.28; stroke-dashoffset: 0; stroke: #b0b0b0; stroke-width: 0.8"/>
     </g>
     <g id="line2d_32">
      <g>
       <use xlink:href="#m5ff3ee2ee4" x="108" y="154.871038" style="fill: #a9a9a9; stroke: #a9a9a9; stroke-width: 0.8"/>
      </g>
     </g>
     <g id="text_16">
      <!-- 2000 -->
      <g style="fill: #a9a9a9" transform="translate(75.55 158.670257) scale(0.1 -0.1)">
       <use xlink:href="#DejaVuSans-32"/>
       <use xlink:href="#DejaVuSans-30" x="63.623047"/>
       <use xlink:href="#DejaVuSans-30" x="127.246094"/>
       <use xlink:href="#DejaVuSans-30" x="190.869141"/>
      </g>
     </g>
    </g>
    <g id="ytick_7">
     <g id="line2d_33">
      <path d="M 108 124.269945 
L 777.6 124.269945 
" clip-path="url(#p04475811cf)" style="fill: none; stroke-dasharray: 5.12,1.28,0.8,1.28; stroke-dashoffset: 0; stroke: #b0b0b0; stroke-width: 0.8"/>
     </g>
     <g id="line2d_34">
      <g>
       <use xlink:href="#m5ff3ee2ee4" x="108" y="124.269945" style="fill: #a9a9a9; stroke: #a9a9a9; stroke-width: 0.8"/>
      </g>
     </g>
     <g id="text_17">
      <!-- 2400 -->
      <g style="fill: #a9a9a9" transform="translate(75.55 128.069164) scale(0.1 -0.1)">
       <use xlink:href="#DejaVuSans-32"/>
       <use xlink:href="#DejaVuSans-34" x="63.623047"/>
       <use xlink:href="#DejaVuSans-30" x="127.246094"/>
       <use xlink:href="#DejaVuSans-30" x="190.869141"/>
      </g>
     </g>
    </g>
    <g id="ytick_8">
     <g id="line2d_35">
      <path d="M 108 93.668852 
L 777.6 93.668852 
" clip-path="url(#p04475811cf)" style="fill: none; stroke-dasharray: 5.12,1.28,0.8,1.28; stroke-dashoffset: 0; stroke: #b0b0b0; stroke-width: 0.8"/>
     </g>
     <g id="line2d_36">
      <g>
       <use xlink:href="#m5ff3ee2ee4" x="108" y="93.668852" style="fill: #a9a9a9; stroke: #a9a9a9; stroke-width: 0.8"/>
      </g>
     </g>
     <g id="text_18">
      <!-- 2800 -->
      <g style="fill: #a9a9a9" transform="translate(75.55 97.468071) scale(0.1 -0.1)">
       <use xlink:href="#DejaVuSans-32"/>
       <use xlink:href="#DejaVuSans-38" x="63.623047"/>
       <use xlink:href="#DejaVuSans-30" x="127.246094"/>
       <use xlink:href="#DejaVuSans-30" x="190.869141"/>
      </g>
     </g>
    </g>
    <g id="ytick_9">
     <g id="line2d_37">
      <path d="M 108 63.06776 
L 777.6 63.06776 
" clip-path="url(#p04475811cf)" style="fill: none; stroke-dasharray: 5.12,1.28,0.8,1.28; stroke-dashoffset: 0; stroke: #b0b0b0; stroke-width: 0.8"/>
     </g>
     <g id="line2d_38">
      <g>
       <use xlink:href="#m5ff3ee2ee4" x="108" y="63.06776" style="fill: #a9a9a9; stroke: #a9a9a9; stroke-width: 0.8"/>
      </g>
     </g>
     <g id="text_19">
      <!-- 3200 -->
      <g style="fill: #a9a9a9" transform="translate(75.55 66.866978) scale(0.1 -0.1)">
       <use xlink:href="#DejaVuSans-33"/>
       <use xlink:href="#DejaVuSans-32" x="63.623047"/>
       <use xlink:href="#DejaVuSans-30" x="127.246094"/>
       <use xlink:href="#DejaVuSans-30" x="190.869141"/>
      </g>
     </g>
    </g>
   </g>
   <g id="line2d_39">
    <path d="M 138.436364 307.570492 
L 143.296462 307.187978 
L 144.511486 307.034973 
L 145.726511 307.034973 
L 146.941535 306.575956 
L 149.371584 306.422951 
L 157.876756 304.816393 
L 160.306805 304.663388 
L 161.521829 304.43388 
L 165.166903 304.204372 
L 166.381927 303.59235 
L 167.596952 303.286339 
L 168.811976 301.90929 
L 170.027001 301.144262 
L 171.242025 298.466667 
L 172.45705 298.313661 
L 173.672074 297.472131 
L 174.887099 297.013115 
L 176.102123 296.401093 
L 179.747197 293.570492 
L 180.962221 292.95847 
L 183.39227 292.040437 
L 184.607295 291.198907 
L 185.822319 290.739891 
L 188.252368 289.286339 
L 189.467392 288.903825 
L 190.682417 287.06776 
L 191.897441 286.149727 
L 193.112466 285.461202 
L 194.32749 284.925683 
L 199.187588 284.237158 
L 202.832662 283.625137 
L 205.262711 283.472131 
L 206.477735 283.242623 
L 207.69276 282.630601 
L 212.552858 282.248087 
L 216.197931 281.865574 
L 217.412956 281.48306 
L 223.488078 280.335519 
L 225.918127 280.106011 
L 227.133152 279.8 
L 230.778225 279.340984 
L 231.99325 278.728962 
L 233.208274 278.575956 
L 235.638323 277.734426 
L 238.068372 277.504918 
L 239.283397 277.122404 
L 244.143495 276.43388 
L 245.358519 276.051366 
L 247.788568 275.668852 
L 249.003593 275.668852 
L 255.078715 274.903825 
L 257.508764 274.215301 
L 258.723789 273.90929 
L 261.153838 273.679781 
L 262.368862 273.603279 
L 266.013936 272.914754 
L 267.22896 272.455738 
L 268.443985 270.925683 
L 269.659009 270.466667 
L 270.874034 269.854645 
L 272.089058 269.701639 
L 273.304083 269.395628 
L 274.519107 269.242623 
L 276.949156 268.248087 
L 278.164181 268.171585 
L 284.239303 266.565027 
L 285.454328 266.565027 
L 287.884377 266.259016 
L 290.314426 265.570492 
L 293.959499 264.652459 
L 295.174524 264.575956 
L 297.604573 263.581421 
L 298.819597 263.428415 
L 300.034622 262.892896 
L 302.464671 262.663388 
L 303.679695 262.586885 
L 307.324769 261.974863 
L 309.754818 261.59235 
L 313.399891 260.903825 
L 314.614916 260.521311 
L 315.82994 260.368306 
L 318.259989 259.526776 
L 319.475014 258.838251 
L 320.690038 258.53224 
L 321.905063 258.379235 
L 324.335112 257.614208 
L 326.765161 256.313661 
L 327.980185 255.548634 
L 329.19521 255.395628 
L 330.410234 255.013115 
L 331.625259 254.860109 
L 332.840283 254.554098 
L 334.055308 254.401093 
L 335.270332 253.865574 
L 337.700381 253.48306 
L 338.915406 252.871038 
L 340.13043 252.412022 
L 341.345455 252.106011 
L 342.560479 251.953005 
L 343.775504 251.493989 
L 348.635602 250.575956 
L 351.065651 249.581421 
L 352.280675 249.351913 
L 353.4957 248.892896 
L 354.710724 248.739891 
L 355.925749 248.204372 
L 357.140773 247.898361 
L 359.570822 247.745355 
L 362.000871 246.980328 
L 363.215895 246.827322 
L 364.43092 246.827322 
L 365.645944 246.291803 
L 368.075993 245.90929 
L 369.291018 245.450273 
L 371.721067 245.37377 
L 372.936091 245.220765 
L 374.151116 245.220765 
L 376.581165 244.838251 
L 379.011214 243.69071 
L 381.441263 242.619672 
L 382.656287 242.313661 
L 383.871312 241.548634 
L 385.086336 241.16612 
L 387.516385 240.095082 
L 388.73141 239.865574 
L 389.946434 239.330055 
L 391.161459 238.947541 
L 392.376483 238.182514 
L 393.591508 237.570492 
L 394.806532 236.346448 
L 396.021557 234.43388 
L 397.236581 232.903825 
L 398.451606 232.521311 
L 399.66663 232.521311 
L 400.881655 231.756284 
L 402.096679 230.838251 
L 403.311704 230.53224 
L 404.526728 229.920219 
L 405.741753 229.69071 
L 406.956777 228.619672 
L 408.171802 228.313661 
L 411.816875 226.707104 
L 413.0319 225.330055 
L 414.246924 223.570492 
L 415.461949 222.881967 
L 416.676973 220.969399 
L 417.891998 219.821858 
L 419.107022 219.286339 
L 420.322047 218.980328 
L 421.537071 218.215301 
L 423.96712 217.06776 
L 425.182145 216.22623 
L 426.397169 215.231694 
L 427.612194 214.390164 
L 428.827218 213.701639 
L 430.042243 212.095082 
L 431.257267 209.417486 
L 432.472292 207.734426 
L 433.687316 206.816393 
L 434.902341 206.280874 
L 439.762439 202.379235 
L 442.192488 200.466667 
L 443.407512 199.472131 
L 444.622537 197.789071 
L 445.837561 196.64153 
L 447.052586 195.723497 
L 450.697659 193.351913 
L 451.912684 192.510383 
L 453.127708 191.515847 
L 454.342733 191.209836 
L 455.557757 190.674317 
L 459.202831 188.685246 
L 461.63288 187.537705 
L 464.062929 185.472131 
L 465.277953 184.018579 
L 466.492978 183.177049 
L 467.708002 182.488525 
L 468.923027 182.182514 
L 470.138051 181.570492 
L 471.353076 180.728962 
L 473.783125 179.504918 
L 474.998149 179.27541 
L 476.213174 178.510383 
L 478.643223 177.209836 
L 479.858247 176.062295 
L 481.073272 175.220765 
L 482.288296 174.838251 
L 483.503321 174.073224 
L 484.718345 173.537705 
L 485.93337 172.772678 
L 487.148394 172.313661 
L 488.363419 171.548634 
L 489.578443 170.554098 
L 492.008492 169.712568 
L 493.223517 169.177049 
L 494.438541 168.947541 
L 495.653566 168.182514 
L 496.86859 167.953005 
L 499.298639 167.111475 
L 500.513664 166.728962 
L 502.943713 165.734426 
L 504.158737 165.27541 
L 505.373762 164.969399 
L 506.588786 164.510383 
L 509.018835 164.051366 
L 510.23386 162.980328 
L 511.448884 162.062295 
L 512.663909 161.603279 
L 515.093958 160.302732 
L 517.524007 159.002186 
L 519.954056 158.313661 
L 521.16908 157.395628 
L 522.384105 157.089617 
L 524.814154 155.559563 
L 526.029178 154.947541 
L 529.674251 154.182514 
L 532.1043 153.493989 
L 535.749374 151.504918 
L 536.964398 151.351913 
L 538.179423 150.892896 
L 539.394447 150.739891 
L 540.609472 150.280874 
L 541.824496 149.515847 
L 543.039521 148.597814 
L 544.254545 147.832787 
L 545.46957 147.603279 
L 546.684594 146.991257 
L 547.899619 146.838251 
L 549.114643 146.379235 
L 550.329668 145.537705 
L 551.544692 145.155191 
L 552.759717 144.619672 
L 557.619815 143.319126 
L 558.834839 143.242623 
L 560.049864 142.860109 
L 562.479913 141.789071 
L 563.694937 141.406557 
L 564.909962 141.177049 
L 566.124986 140.64153 
L 567.340011 140.259016 
L 568.555035 139.646995 
L 570.985084 138.95847 
L 572.200109 138.881967 
L 574.630158 138.346448 
L 575.845182 137.810929 
L 577.060207 137.581421 
L 579.490256 136.586885 
L 583.135329 134.903825 
L 585.565378 133.37377 
L 586.780403 133.06776 
L 587.995427 132.379235 
L 589.210452 131.920219 
L 590.425476 131.231694 
L 592.855525 130.619672 
L 594.07055 129.931148 
L 596.500599 128.936612 
L 598.930648 128.554098 
L 600.145672 127.712568 
L 601.360697 127.100546 
L 602.575721 126.871038 
L 603.790746 126.412022 
L 605.00577 125.8 
L 606.220795 125.570492 
L 607.435819 124.95847 
L 612.295917 124.269945 
L 614.725966 123.198907 
L 615.940991 122.280874 
L 617.156015 120.215301 
L 618.37104 119.90929 
L 619.586064 119.756284 
L 620.801089 119.450273 
L 623.231138 118.149727 
L 624.446162 117.69071 
L 625.661187 117.078689 
L 626.876211 116.772678 
L 629.30626 115.625137 
L 631.736309 114.477596 
L 634.166358 113.48306 
L 635.381383 112.718033 
L 636.596407 112.259016 
L 640.241481 111.417486 
L 642.67153 110.269945 
L 643.886554 109.734426 
L 645.101579 109.504918 
L 648.746652 108.051366 
L 651.176701 106.597814 
L 652.391726 105.756284 
L 653.60675 105.144262 
L 654.821775 104.914754 
L 656.036799 104.455738 
L 657.251824 104.379235 
L 662.111922 102.772678 
L 663.326946 102.696175 
L 664.541971 101.854645 
L 665.756995 101.472131 
L 666.97202 100.936612 
L 670.617093 99.865574 
L 671.832118 99.177049 
L 673.047142 98.794536 
L 674.262167 98.029508 
L 675.477191 97.493989 
L 676.692216 96.728962 
L 682.767338 94.357377 
L 683.982363 93.668852 
L 685.197387 92.827322 
L 686.412412 91.526776 
L 687.627436 90.761749 
L 688.842461 90.53224 
L 691.27251 88.696175 
L 692.487534 88.237158 
L 693.702559 86.477596 
L 694.917583 86.018579 
L 696.132608 85.177049 
L 697.347632 84.947541 
L 698.562657 84.182514 
L 699.777681 83.646995 
L 700.992705 83.417486 
L 702.20773 82.881967 
L 703.422754 81.887432 
L 704.637779 81.504918 
L 707.067828 79.898361 
L 708.282852 79.133333 
L 709.497877 78.597814 
L 711.927926 77.297268 
L 713.14295 76.761749 
L 714.357975 76.608743 
L 715.572999 76.149727 
L 718.003048 74.696175 
L 719.218073 72.860109 
L 720.433097 71.712568 
L 721.648122 70.947541 
L 722.863146 70.64153 
L 725.293195 69.264481 
L 726.50822 69.034973 
L 727.723244 68.346448 
L 731.368318 66.892896 
L 732.583342 66.280874 
L 735.013391 64.597814 
L 737.44344 62.073224 
L 738.658465 61.155191 
L 741.088514 59.701639 
L 742.303538 58.554098 
L 745.948612 55.8 
L 747.163636 55.8 
L 747.163636 55.8 
" clip-path="url(#p04475811cf)" style="fill: none; stroke: #1f77b4; stroke-width: 1.5; stroke-linecap: square"/>
   </g>
   <g id="line2d_40">
    <path d="M 139.651388 307.8 
L 142.081437 307.8 
L 144.511486 307.493989 
L 151.801633 307.417486 
L 155.446707 307.264481 
L 159.09178 307.187978 
L 161.521829 307.111475 
L 165.166903 307.111475 
L 166.381927 306.805464 
L 170.027001 306.728962 
L 176.102123 306.040437 
L 185.822319 305.504918 
L 187.037343 305.504918 
L 188.252368 305.27541 
L 191.897441 305.198907 
L 194.32749 304.892896 
L 199.187588 304.892896 
L 200.402613 304.739891 
L 206.477735 304.663388 
L 210.122809 304.510383 
L 221.058029 304.43388 
L 223.488078 304.357377 
L 228.348176 304.280874 
L 231.99325 304.127869 
L 236.853348 304.127869 
L 238.068372 303.974863 
L 241.713446 303.898361 
L 246.573544 303.668852 
L 255.078715 303.59235 
L 257.508764 303.515847 
L 262.368862 303.439344 
L 266.013936 302.980328 
L 272.089058 302.903825 
L 278.164181 302.597814 
L 284.239303 302.521311 
L 287.884377 302.368306 
L 290.314426 302.291803 
L 292.744475 302.062295 
L 297.604573 301.832787 
L 301.249646 301.756284 
L 303.679695 301.679781 
L 306.109744 301.679781 
L 307.324769 301.526776 
L 310.969842 301.526776 
L 313.399891 301.297268 
L 317.044965 301.144262 
L 323.120087 301.06776 
L 327.980185 300.53224 
L 329.19521 300.455738 
L 330.410234 300.22623 
L 335.270332 300.149727 
L 338.915406 299.843716 
L 341.345455 299.614208 
L 347.420577 299.308197 
L 351.065651 299.231694 
L 354.710724 299.078689 
L 355.925749 299.078689 
L 358.355797 298.84918 
L 360.785846 298.772678 
L 362.000871 298.772678 
L 363.215895 298.619672 
L 365.645944 298.543169 
L 371.721067 298.237158 
L 374.151116 298.160656 
L 377.796189 298.00765 
L 381.441263 297.931148 
L 383.871312 297.854645 
L 389.946434 297.778142 
L 394.806532 297.242623 
L 396.021557 297.242623 
L 398.451606 297.013115 
L 400.881655 296.936612 
L 405.741753 296.554098 
L 406.956777 296.401093 
L 408.171802 296.095082 
L 410.601851 295.942077 
L 411.816875 295.636066 
L 415.461949 295.330055 
L 417.891998 294.794536 
L 420.322047 294.718033 
L 422.752096 294.718033 
L 423.96712 294.565027 
L 425.182145 294.565027 
L 427.612194 294.182514 
L 432.472292 293.340984 
L 433.687316 293.340984 
L 434.902341 293.187978 
L 438.547414 293.111475 
L 454.342733 292.11694 
L 455.557757 291.887432 
L 459.202831 291.657923 
L 461.63288 291.27541 
L 464.062929 291.045902 
L 466.492978 290.969399 
L 468.923027 290.969399 
L 470.138051 290.663388 
L 471.353076 290.510383 
L 476.213174 290.43388 
L 478.643223 290.204372 
L 479.858247 290.204372 
L 483.503321 289.668852 
L 484.718345 289.362842 
L 485.93337 289.209836 
L 488.363419 289.133333 
L 494.438541 288.827322 
L 498.083615 288.75082 
L 513.878933 287.832787 
L 516.308982 287.832787 
L 518.739031 287.603279 
L 521.16908 287.603279 
L 524.814154 287.220765 
L 529.674251 286.991257 
L 532.1043 286.914754 
L 533.319325 286.761749 
L 538.179423 286.685246 
L 546.684594 286.22623 
L 552.759717 286.149727 
L 555.189766 286.073224 
L 556.40479 286.073224 
L 557.619815 285.843716 
L 560.049864 285.767213 
L 567.340011 285.69071 
L 570.985084 285.537705 
L 575.845182 285.461202 
L 577.060207 285.231694 
L 584.350354 285.155191 
L 586.780403 285.078689 
L 589.210452 285.002186 
L 591.640501 284.925683 
L 594.07055 284.84918 
L 603.790746 284.313661 
L 609.865868 284.237158 
L 613.510942 283.931148 
L 615.940991 283.701639 
L 618.37104 283.625137 
L 620.801089 283.548634 
L 622.016113 283.395628 
L 625.661187 283.319126 
L 626.876211 283.013115 
L 631.736309 282.783607 
L 642.67153 282.707104 
L 646.316603 282.401093 
L 651.176701 281.865574 
L 653.60675 281.789071 
L 658.466848 281.712568 
L 662.111922 281.330055 
L 669.402069 280.947541 
L 671.832118 280.871038 
L 676.692216 280.64153 
L 681.552314 280.565027 
L 685.197387 280.412022 
L 690.057485 280.335519 
L 693.702559 279.953005 
L 696.132608 279.876503 
L 700.992705 279.8 
L 704.637779 279.493989 
L 705.852803 279.340984 
L 707.067828 279.340984 
L 708.282852 279.111475 
L 710.712901 279.034973 
L 715.572999 278.95847 
L 718.003048 278.575956 
L 720.433097 278.575956 
L 721.648122 278.346448 
L 724.078171 278.269945 
L 730.153293 278.193443 
L 732.583342 277.887432 
L 733.798367 277.887432 
L 736.228416 277.657923 
L 737.44344 277.657923 
L 738.658465 277.351913 
L 741.088514 277.27541 
L 742.303538 277.122404 
L 744.733587 277.122404 
L 745.948612 276.969399 
L 747.163636 276.969399 
L 747.163636 276.969399 
" clip-path="url(#p04475811cf)" style="fill: none; stroke: #ff7f0e; stroke-width: 1.5; stroke-linecap: square"/>
   </g>
   <g id="patch_3">
    <path d="M 108 320.4 
L 108 43.2 
" style="fill: none; stroke: #a9a9a9; stroke-width: 0.8; stroke-linejoin: miter; stroke-linecap: square"/>
   </g>
   <g id="patch_4">
    <path d="M 777.6 320.4 
L 777.6 43.2 
" style="fill: none"/>
   </g>
   <g id="patch_5">
    <path d="M 108 320.4 
L 777.6 320.4 
" style="fill: none; stroke: #a9a9a9; stroke-width: 0.8; stroke-linejoin: miter; stroke-linecap: square"/>
   </g>
   <g id="patch_6">
    <path d="M 108 43.2 
L 777.6 43.2 
" style="fill: none"/>
   </g>
   <g id="text_20">
    <!-- get_subscribe history -->
    <g style="fill: #a9a9a9" transform="translate(378.6075 37.2) scale(0.12 -0.12)">
     <defs>
      <path id="DejaVuSans-67" d="M 2906 1791 
Q 2906 2416 2648 2759 
Q 2391 3103 1925 3103 
Q 1463 3103 1205 2759 
Q 947 2416 947 1791 
Q 947 1169 1205 825 
Q 1463 481 1925 481 
Q 2391 481 2648 825 
Q 2906 1169 2906 1791 
z
M 3481 434 
Q 3481 -459 3084 -895 
Q 2688 -1331 1869 -1331 
Q 1566 -1331 1297 -1286 
Q 1028 -1241 775 -1147 
L 775 -588 
Q 1028 -725 1275 -790 
Q 1522 -856 1778 -856 
Q 2344 -856 2625 -561 
Q 2906 -266 2906 331 
L 2906 616 
Q 2728 306 2450 153 
Q 2172 0 1784 0 
Q 1141 0 747 490 
Q 353 981 353 1791 
Q 353 2603 747 3093 
Q 1141 3584 1784 3584 
Q 2172 3584 2450 3431 
Q 2728 3278 2906 2969 
L 2906 3500 
L 3481 3500 
L 3481 434 
z
" transform="scale(0.015625)"/>
      <path id="DejaVuSans-65" d="M 3597 1894 
L 3597 1613 
L 953 1613 
Q 991 1019 1311 708 
Q 1631 397 2203 397 
Q 2534 397 2845 478 
Q 3156 559 3463 722 
L 3463 178 
Q 3153 47 2828 -22 
Q 2503 -91 2169 -91 
Q 1331 -91 842 396 
Q 353 884 353 1716 
Q 353 2575 817 3079 
Q 1281 3584 2069 3584 
Q 2775 3584 3186 3129 
Q 3597 2675 3597 1894 
z
M 3022 2063 
Q 3016 2534 2758 2815 
Q 2500 3097 2075 3097 
Q 1594 3097 1305 2825 
Q 1016 2553 972 2059 
L 3022 2063 
z
" transform="scale(0.015625)"/>
      <path id="DejaVuSans-74" d="M 1172 4494 
L 1172 3500 
L 2356 3500 
L 2356 3053 
L 1172 3053 
L 1172 1153 
Q 1172 725 1289 603 
Q 1406 481 1766 481 
L 2356 481 
L 2356 0 
L 1766 0 
Q 1100 0 847 248 
Q 594 497 594 1153 
L 594 3053 
L 172 3053 
L 172 3500 
L 594 3500 
L 594 4494 
L 1172 4494 
z
" transform="scale(0.015625)"/>
      <path id="DejaVuSans-5f" d="M 3263 -1063 
L 3263 -1509 
L -63 -1509 
L -63 -1063 
L 3263 -1063 
z
" transform="scale(0.015625)"/>
      <path id="DejaVuSans-73" d="M 2834 3397 
L 2834 2853 
Q 2591 2978 2328 3040 
Q 2066 3103 1784 3103 
Q 1356 3103 1142 2972 
Q 928 2841 928 2578 
Q 928 2378 1081 2264 
Q 1234 2150 1697 2047 
L 1894 2003 
Q 2506 1872 2764 1633 
Q 3022 1394 3022 966 
Q 3022 478 2636 193 
Q 2250 -91 1575 -91 
Q 1294 -91 989 -36 
Q 684 19 347 128 
L 347 722 
Q 666 556 975 473 
Q 1284 391 1588 391 
Q 1994 391 2212 530 
Q 2431 669 2431 922 
Q 2431 1156 2273 1281 
Q 2116 1406 1581 1522 
L 1381 1569 
Q 847 1681 609 1914 
Q 372 2147 372 2553 
Q 372 3047 722 3315 
Q 1072 3584 1716 3584 
Q 2034 3584 2315 3537 
Q 2597 3491 2834 3397 
z
" transform="scale(0.015625)"/>
      <path id="DejaVuSans-75" d="M 544 1381 
L 544 3500 
L 1119 3500 
L 1119 1403 
Q 1119 906 1312 657 
Q 1506 409 1894 409 
Q 2359 409 2629 706 
Q 2900 1003 2900 1516 
L 2900 3500 
L 3475 3500 
L 3475 0 
L 2900 0 
L 2900 538 
Q 2691 219 2414 64 
Q 2138 -91 1772 -91 
Q 1169 -91 856 284 
Q 544 659 544 1381 
z
M 1991 3584 
L 1991 3584 
z
" transform="scale(0.015625)"/>
      <path id="DejaVuSans-62" d="M 3116 1747 
Q 3116 2381 2855 2742 
Q 2594 3103 2138 3103 
Q 1681 3103 1420 2742 
Q 1159 2381 1159 1747 
Q 1159 1113 1420 752 
Q 1681 391 2138 391 
Q 2594 391 2855 752 
Q 3116 1113 3116 1747 
z
M 1159 2969 
Q 1341 3281 1617 3432 
Q 1894 3584 2278 3584 
Q 2916 3584 3314 3078 
Q 3713 2572 3713 1747 
Q 3713 922 3314 415 
Q 2916 -91 2278 -91 
Q 1894 -91 1617 61 
Q 1341 213 1159 525 
L 1159 0 
L 581 0 
L 581 4863 
L 1159 4863 
L 1159 2969 
z
" transform="scale(0.015625)"/>
      <path id="DejaVuSans-63" d="M 3122 3366 
L 3122 2828 
Q 2878 2963 2633 3030 
Q 2388 3097 2138 3097 
Q 1578 3097 1268 2742 
Q 959 2388 959 1747 
Q 959 1106 1268 751 
Q 1578 397 2138 397 
Q 2388 397 2633 464 
Q 2878 531 3122 666 
L 3122 134 
Q 2881 22 2623 -34 
Q 2366 -91 2075 -91 
Q 1284 -91 818 406 
Q 353 903 353 1747 
Q 353 2603 823 3093 
Q 1294 3584 2113 3584 
Q 2378 3584 2631 3529 
Q 2884 3475 3122 3366 
z
" transform="scale(0.015625)"/>
      <path id="DejaVuSans-72" d="M 2631 2963 
Q 2534 3019 2420 3045 
Q 2306 3072 2169 3072 
Q 1681 3072 1420 2755 
Q 1159 2438 1159 1844 
L 1159 0 
L 581 0 
L 581 3500 
L 1159 3500 
L 1159 2956 
Q 1341 3275 1631 3429 
Q 1922 3584 2338 3584 
Q 2397 3584 2469 3576 
Q 2541 3569 2628 3553 
L 2631 2963 
z
" transform="scale(0.015625)"/>
      <path id="DejaVuSans-69" d="M 603 3500 
L 1178 3500 
L 1178 0 
L 603 0 
L 603 3500 
z
M 603 4863 
L 1178 4863 
L 1178 4134 
L 603 4134 
L 603 4863 
z
" transform="scale(0.015625)"/>
      <path id="DejaVuSans-20" transform="scale(0.015625)"/>
      <path id="DejaVuSans-68" d="M 3513 2113 
L 3513 0 
L 2938 0 
L 2938 2094 
Q 2938 2591 2744 2837 
Q 2550 3084 2163 3084 
Q 1697 3084 1428 2787 
Q 1159 2491 1159 1978 
L 1159 0 
L 581 0 
L 581 4863 
L 1159 4863 
L 1159 2956 
Q 1366 3272 1645 3428 
Q 1925 3584 2291 3584 
Q 2894 3584 3203 3211 
Q 3513 2838 3513 2113 
z
" transform="scale(0.015625)"/>
      <path id="DejaVuSans-6f" d="M 1959 3097 
Q 1497 3097 1228 2736 
Q 959 2375 959 1747 
Q 959 1119 1226 758 
Q 1494 397 1959 397 
Q 2419 397 2687 759 
Q 2956 1122 2956 1747 
Q 2956 2369 2687 2733 
Q 2419 3097 1959 3097 
z
M 1959 3584 
Q 2709 3584 3137 3096 
Q 3566 2609 3566 1747 
Q 3566 888 3137 398 
Q 2709 -91 1959 -91 
Q 1206 -91 779 398 
Q 353 888 353 1747 
Q 353 2609 779 3096 
Q 1206 3584 1959 3584 
z
" transform="scale(0.015625)"/>
      <path id="DejaVuSans-79" d="M 2059 -325 
Q 1816 -950 1584 -1140 
Q 1353 -1331 966 -1331 
L 506 -1331 
L 506 -850 
L 844 -850 
Q 1081 -850 1212 -737 
Q 1344 -625 1503 -206 
L 1606 56 
L 191 3500 
L 800 3500 
L 1894 763 
L 2988 3500 
L 3597 3500 
L 2059 -325 
z
" transform="scale(0.015625)"/>
     </defs>
     <use xlink:href="#DejaVuSans-67"/>
     <use xlink:href="#DejaVuSans-65" x="63.476562"/>
     <use xlink:href="#DejaVuSans-74" x="125"/>
     <use xlink:href="#DejaVuSans-5f" x="164.208984"/>
     <use xlink:href="#DejaVuSans-73" x="214.208984"/>
     <use xlink:href="#DejaVuSans-75" x="266.308594"/>
     <use xlink:href="#DejaVuSans-62" x="329.6875"/>
     <use xlink:href="#DejaVuSans-73" x="393.164062"/>
     <use xlink:href="#DejaVuSans-63" x="445.263672"/>
     <use xlink:href="#DejaVuSans-72" x="500.244141"/>
     <use xlink:href="#DejaVuSans-69" x="541.357422"/>
     <use xlink:href="#DejaVuSans-62" x="569.140625"/>
     <use xlink:href="#DejaVuSans-65" x="632.617188"/>
     <use xlink:href="#DejaVuSans-20" x="694.140625"/>
     <use xlink:href="#DejaVuSans-68" x="725.927734"/>
     <use xlink:href="#DejaVuSans-69" x="789.306641"/>
     <use xlink:href="#DejaVuSans-73" x="817.089844"/>
     <use xlink:href="#DejaVuSans-74" x="869.189453"/>
     <use xlink:href="#DejaVuSans-6f" x="908.398438"/>
     <use xlink:href="#DejaVuSans-72" x="969.580078"/>
     <use xlink:href="#DejaVuSans-79" x="1010.693359"/>
    </g>
   </g>
   <g id="legend_1">
    <g id="line2d_41">
     <path d="M 815.08 328.498438 
L 825.08 328.498438 
L 835.08 328.498438 
" style="fill: none; stroke: #1f77b4; stroke-width: 1.5; stroke-linecap: square"/>
    </g>
    <g id="text_21">
     <!-- star -->
     <g style="fill: #a9a9a9" transform="translate(843.08 331.998438) scale(0.1 -0.1)">
      <defs>
       <path id="DejaVuSans-61" d="M 2194 1759 
Q 1497 1759 1228 1600 
Q 959 1441 959 1056 
Q 959 750 1161 570 
Q 1363 391 1709 391 
Q 2188 391 2477 730 
Q 2766 1069 2766 1631 
L 2766 1759 
L 2194 1759 
z
M 3341 1997 
L 3341 0 
L 2766 0 
L 2766 531 
Q 2569 213 2275 61 
Q 1981 -91 1556 -91 
Q 1019 -91 701 211 
Q 384 513 384 1019 
Q 384 1609 779 1909 
Q 1175 2209 1959 2209 
L 2766 2209 
L 2766 2266 
Q 2766 2663 2505 2880 
Q 2244 3097 1772 3097 
Q 1472 3097 1187 3025 
Q 903 2953 641 2809 
L 641 3341 
Q 956 3463 1253 3523 
Q 1550 3584 1831 3584 
Q 2591 3584 2966 3190 
Q 3341 2797 3341 1997 
z
" transform="scale(0.015625)"/>
      </defs>
      <use xlink:href="#DejaVuSans-73"/>
      <use xlink:href="#DejaVuSans-74" x="52.099609"/>
      <use xlink:href="#DejaVuSans-61" x="91.308594"/>
      <use xlink:href="#DejaVuSans-72" x="152.587891"/>
     </g>
    </g>
    <g id="line2d_42">
     <path d="M 815.08 343.176562 
L 825.08 343.176562 
L 835.08 343.176562 
" style="fill: none; stroke: #ff7f0e; stroke-width: 1.5; stroke-linecap: square"/>
    </g>
    <g id="text_22">
     <!-- fork -->
     <g style="fill: #a9a9a9" transform="translate(843.08 346.676562) scale(0.1 -0.1)">
      <defs>
       <path id="DejaVuSans-66" d="M 2375 4863 
L 2375 4384 
L 1825 4384 
Q 1516 4384 1395 4259 
Q 1275 4134 1275 3809 
L 1275 3500 
L 2222 3500 
L 2222 3053 
L 1275 3053 
L 1275 0 
L 697 0 
L 697 3053 
L 147 3053 
L 147 3500 
L 697 3500 
L 697 3744 
Q 697 4328 969 4595 
Q 1241 4863 1831 4863 
L 2375 4863 
z
" transform="scale(0.015625)"/>
       <path id="DejaVuSans-6b" d="M 581 4863 
L 1159 4863 
L 1159 1991 
L 2875 3500 
L 3609 3500 
L 1753 1863 
L 3688 0 
L 2938 0 
L 1159 1709 
L 1159 0 
L 581 0 
L 581 4863 
z
" transform="scale(0.015625)"/>
      </defs>
      <use xlink:href="#DejaVuSans-66"/>
      <use xlink:href="#DejaVuSans-6f" x="35.205078"/>
      <use xlink:href="#DejaVuSans-72" x="96.386719"/>
      <use xlink:href="#DejaVuSans-6b" x="137.5"/>
     </g>
    </g>
   </g>
  </g>
 </g>
 <defs>
  <clipPath id="p04475811cf">
   <rect x="108" y="43.2" width="669.6" height="277.2"/>
  </clipPath>
 </defs>
</svg>
